<svg width="349" height="85" viewBox="0 0 349 85" fill="none" xmlns="http://www.w3.org/2000/svg">
<path d="M165 55.3182C163.288 55.3182 161.83 54.8523 160.625 53.9205C159.42 52.9811 158.5 51.6212 157.864 49.8409C157.227 48.053 156.909 45.8939 156.909 43.3636C156.909 40.8485 157.227 38.7008 157.864 36.9205C158.508 35.1326 159.432 33.7689 160.636 32.8295C161.848 31.8826 163.303 31.4091 165 31.4091C166.697 31.4091 168.148 31.8826 169.352 32.8295C170.564 33.7689 171.489 35.1326 172.125 36.9205C172.769 38.7008 173.091 40.8485 173.091 43.3636C173.091 45.8939 172.773 48.053 172.136 49.8409C171.5 51.6212 170.58 52.9811 169.375 53.9205C168.17 54.8523 166.712 55.3182 165 55.3182ZM165 52.8182C166.697 52.8182 168.015 52 168.955 50.3636C169.894 48.7273 170.364 46.3939 170.364 43.3636C170.364 41.3485 170.148 39.6326 169.716 38.2159C169.292 36.7992 168.678 35.7197 167.875 34.9773C167.08 34.2348 166.121 33.8636 165 33.8636C163.318 33.8636 162.004 34.6932 161.057 36.3523C160.11 38.0038 159.636 40.3409 159.636 43.3636C159.636 45.3788 159.848 47.0909 160.273 48.5C160.697 49.9091 161.307 50.9811 162.102 51.7159C162.905 52.4508 163.871 52.8182 165 52.8182ZM184.864 55.3182C183.303 55.3182 181.924 55.0417 180.727 54.4886C179.538 53.928 178.61 53.1591 177.943 52.1818C177.277 51.197 176.947 50.0758 176.955 48.8182C176.947 47.8333 177.14 46.9242 177.534 46.0909C177.928 45.25 178.466 44.5492 179.148 43.9886C179.837 43.4205 180.606 43.0606 181.455 42.9091V42.7727C180.341 42.4848 179.455 41.8598 178.795 40.8977C178.136 39.928 177.811 38.8258 177.818 37.5909C177.811 36.4091 178.11 35.3523 178.716 34.4205C179.322 33.4886 180.155 32.7538 181.216 32.2159C182.284 31.678 183.5 31.4091 184.864 31.4091C186.212 31.4091 187.417 31.678 188.477 32.2159C189.538 32.7538 190.371 33.4886 190.977 34.4205C191.591 35.3523 191.902 36.4091 191.909 37.5909C191.902 38.8258 191.564 39.928 190.898 40.8977C190.239 41.8598 189.364 42.4848 188.273 42.7727V42.9091C189.114 43.0606 189.871 43.4205 190.545 43.9886C191.22 44.5492 191.758 45.25 192.159 46.0909C192.561 46.9242 192.765 47.8333 192.773 48.8182C192.765 50.0758 192.424 51.197 191.75 52.1818C191.083 53.1591 190.155 53.928 188.966 54.4886C187.784 55.0417 186.417 55.3182 184.864 55.3182ZM184.864 52.8182C185.917 52.8182 186.826 52.6477 187.591 52.3068C188.356 51.9659 188.947 51.4848 189.364 50.8636C189.78 50.2424 189.992 49.5152 190 48.6818C189.992 47.803 189.765 47.0265 189.318 46.3523C188.871 45.678 188.261 45.1477 187.489 44.7614C186.723 44.375 185.848 44.1818 184.864 44.1818C183.871 44.1818 182.985 44.375 182.205 44.7614C181.432 45.1477 180.822 45.678 180.375 46.3523C179.936 47.0265 179.72 47.803 179.727 48.6818C179.72 49.5152 179.92 50.2424 180.33 50.8636C180.746 51.4848 181.341 51.9659 182.114 52.3068C182.886 52.6477 183.803 52.8182 184.864 52.8182ZM184.864 41.7727C185.697 41.7727 186.436 41.6061 187.08 41.2727C187.731 40.9394 188.242 40.4735 188.614 39.875C188.985 39.2765 189.174 38.5758 189.182 37.7727C189.174 36.9848 188.989 36.2992 188.625 35.7159C188.261 35.125 187.758 34.6705 187.114 34.3523C186.47 34.0265 185.72 33.8636 184.864 33.8636C183.992 33.8636 183.231 34.0265 182.58 34.3523C181.928 34.6705 181.424 35.125 181.068 35.7159C180.712 36.2992 180.538 36.9848 180.545 37.7727C180.538 38.5758 180.716 39.2765 181.08 39.875C181.451 40.4735 181.962 40.9394 182.614 41.2727C183.265 41.6061 184.015 41.7727 184.864 41.7727Z" fill="#800020"/>
<path d="M161.597 4.90909H163.182V14.267C163.182 15.1023 163.028 15.8118 162.722 16.3956C162.415 16.9794 161.982 17.4226 161.424 17.7251C160.866 18.0277 160.207 18.179 159.449 18.179C158.733 18.179 158.096 18.049 157.538 17.7891C156.979 17.5249 156.54 17.1499 156.221 16.6641C155.901 16.1783 155.741 15.6009 155.741 14.9318H157.301C157.301 15.3026 157.393 15.6264 157.576 15.9034C157.763 16.1761 158.019 16.3892 158.343 16.5426C158.667 16.696 159.036 16.7727 159.449 16.7727C159.905 16.7727 160.293 16.6768 160.612 16.4851C160.932 16.2933 161.175 16.0121 161.341 15.6413C161.511 15.2663 161.597 14.8082 161.597 14.267V4.90909ZM172.342 13.9858V8.18182H173.85V18H172.342V16.3381H172.239C172.009 16.8366 171.651 17.2607 171.165 17.6101C170.68 17.9553 170.066 18.1278 169.325 18.1278C168.711 18.1278 168.165 17.9936 167.688 17.7251C167.211 17.4524 166.836 17.0433 166.563 16.4979C166.29 15.9482 166.154 15.2557 166.154 14.4205V8.18182H167.663V14.3182C167.663 15.0341 167.863 15.6051 168.263 16.0312C168.668 16.4574 169.184 16.6705 169.81 16.6705C170.185 16.6705 170.567 16.5746 170.955 16.3828C171.347 16.1911 171.675 15.897 171.939 15.5007C172.207 15.1044 172.342 14.5994 172.342 13.9858ZM178.122 4.90909V18H176.613V4.90909H178.122ZM181.856 21.6818C181.6 21.6818 181.373 21.6605 181.172 21.6179C180.972 21.5795 180.833 21.5412 180.757 21.5028L181.14 20.1733C181.507 20.267 181.831 20.3011 182.112 20.2756C182.393 20.25 182.642 20.1243 182.86 19.8984C183.081 19.6768 183.284 19.3168 183.467 18.8182L183.748 18.0511L180.118 8.18182H181.754L184.464 16.0057H184.566L187.277 8.18182H188.913L184.745 19.4318C184.558 19.9389 184.326 20.3587 184.049 20.6911C183.772 21.0277 183.45 21.277 183.083 21.4389C182.721 21.6009 182.312 21.6818 181.856 21.6818Z" fill="black"/>
<path d="M154.355 81V79.8494L158.676 75.1193C159.183 74.5653 159.601 74.0838 159.929 73.6747C160.257 73.2614 160.5 72.8736 160.658 72.5114C160.82 72.1449 160.901 71.7614 160.901 71.3608C160.901 70.9006 160.79 70.5021 160.568 70.1655C160.351 69.8288 160.053 69.5689 159.673 69.3857C159.294 69.2024 158.868 69.1108 158.395 69.1108C157.892 69.1108 157.453 69.2152 157.078 69.424C156.707 69.6286 156.42 69.9162 156.215 70.2869C156.015 70.6577 155.915 71.0923 155.915 71.5909H154.406C154.406 70.8239 154.583 70.1506 154.937 69.571C155.29 68.9915 155.772 68.5398 156.381 68.2159C156.995 67.892 157.683 67.7301 158.446 67.7301C159.213 67.7301 159.893 67.892 160.485 68.2159C161.077 68.5398 161.542 68.9766 161.879 69.5263C162.215 70.076 162.384 70.6875 162.384 71.3608C162.384 71.8423 162.296 72.3132 162.121 72.7734C161.951 73.2294 161.653 73.7386 161.227 74.3011C160.805 74.8594 160.219 75.5412 159.469 76.3466L156.528 79.4915V79.5938H162.614V81H154.355ZM169.523 81.179C168.56 81.179 167.74 80.9169 167.062 80.3928C166.385 79.8643 165.867 79.0994 165.509 78.098C165.151 77.0923 164.972 75.8778 164.972 74.4545C164.972 73.0398 165.151 71.8317 165.509 70.8303C165.871 69.8246 166.391 69.0575 167.069 68.5291C167.751 67.9964 168.569 67.7301 169.523 67.7301C170.478 67.7301 171.294 67.9964 171.972 68.5291C172.653 69.0575 173.173 69.8246 173.531 70.8303C173.893 71.8317 174.075 73.0398 174.075 74.4545C174.075 75.8778 173.896 77.0923 173.538 78.098C173.18 79.0994 172.662 79.8643 171.984 80.3928C171.307 80.9169 170.487 81.179 169.523 81.179ZM169.523 79.7727C170.478 79.7727 171.219 79.3125 171.748 78.392C172.276 77.4716 172.54 76.1591 172.54 74.4545C172.54 73.321 172.419 72.3558 172.176 71.5589C171.938 70.7621 171.592 70.1548 171.141 69.7372C170.693 69.3196 170.154 69.1108 169.523 69.1108C168.577 69.1108 167.838 69.5774 167.305 70.5107C166.773 71.4396 166.506 72.7543 166.506 74.4545C166.506 75.5881 166.626 76.5511 166.864 77.3438C167.103 78.1364 167.446 78.7393 167.893 79.1527C168.345 79.5661 168.888 79.7727 169.523 79.7727ZM176.504 81V79.8494L180.825 75.1193C181.332 74.5653 181.749 74.0838 182.077 73.6747C182.406 73.2614 182.648 72.8736 182.806 72.5114C182.968 72.1449 183.049 71.7614 183.049 71.3608C183.049 70.9006 182.938 70.5021 182.717 70.1655C182.499 69.8288 182.201 69.5689 181.822 69.3857C181.442 69.2024 181.016 69.1108 180.543 69.1108C180.04 69.1108 179.602 69.2152 179.227 69.424C178.856 69.6286 178.568 69.9162 178.364 70.2869C178.163 70.6577 178.063 71.0923 178.063 71.5909H176.555C176.555 70.8239 176.732 70.1506 177.085 69.571C177.439 68.9915 177.92 68.5398 178.53 68.2159C179.143 67.892 179.832 67.7301 180.594 67.7301C181.362 67.7301 182.041 67.892 182.634 68.2159C183.226 68.5398 183.69 68.9766 184.027 69.5263C184.364 70.076 184.532 70.6875 184.532 71.3608C184.532 71.8423 184.445 72.3132 184.27 72.7734C184.099 73.2294 183.801 73.7386 183.375 74.3011C182.953 74.8594 182.367 75.5412 181.617 76.3466L178.677 79.4915V79.5938H184.762V81H176.504ZM191.825 81.179C190.982 81.179 190.229 81.0341 189.569 80.7443C188.913 80.4545 188.391 80.0518 188.003 79.5362C187.619 79.0163 187.411 78.4134 187.376 77.7273H188.987C189.021 78.1491 189.166 78.5135 189.422 78.8203C189.678 79.1229 190.012 79.3572 190.425 79.5234C190.839 79.6896 191.297 79.7727 191.8 79.7727C192.362 79.7727 192.861 79.6747 193.295 79.4787C193.73 79.2827 194.071 79.0099 194.318 78.6605C194.565 78.3111 194.689 77.9062 194.689 77.446C194.689 76.9645 194.57 76.5405 194.331 76.174C194.092 75.8033 193.743 75.5135 193.283 75.3047C192.822 75.0959 192.26 74.9915 191.595 74.9915H190.547V73.5852H191.595C192.115 73.5852 192.571 73.4915 192.963 73.304C193.359 73.1165 193.668 72.8523 193.89 72.5114C194.116 72.1705 194.229 71.7699 194.229 71.3097C194.229 70.8665 194.131 70.4808 193.935 70.1527C193.739 69.8246 193.462 69.5689 193.104 69.3857C192.75 69.2024 192.332 69.1108 191.851 69.1108C191.399 69.1108 190.973 69.1939 190.572 69.3601C190.176 69.522 189.852 69.7585 189.601 70.0696C189.349 70.3764 189.213 70.7472 189.192 71.1818H187.658C187.683 70.4957 187.89 69.8949 188.278 69.3793C188.665 68.8594 189.173 68.4545 189.799 68.1648C190.43 67.875 191.122 67.7301 191.876 67.7301C192.686 67.7301 193.381 67.8942 193.96 68.2223C194.54 68.5462 194.985 68.9744 195.296 69.5071C195.607 70.0398 195.763 70.6151 195.763 71.233C195.763 71.9702 195.569 72.5987 195.181 73.1186C194.798 73.6385 194.276 73.9986 193.615 74.1989V74.3011C194.442 74.4375 195.087 74.7891 195.552 75.3558C196.016 75.9183 196.249 76.6151 196.249 77.446C196.249 78.1577 196.055 78.7969 195.667 79.3636C195.283 79.9261 194.759 80.3693 194.094 80.6932C193.43 81.017 192.673 81.179 191.825 81.179Z" fill="black"/>
<path d="M226.358 51H224.511L229.852 36.4545H231.67L237.011 51H235.165L230.818 38.7557H230.705L226.358 51ZM227.04 45.3182H234.483V46.8807H227.04V45.3182ZM236.782 38.017V36.4545H247.691V38.017H243.118V51H241.356V38.017H236.782ZM260.893 36.4545V51H259.131V38.3011H259.046L255.495 40.6591V38.8693L259.131 36.4545H260.893ZM269.906 51.1989C269.309 51.1894 268.712 51.0758 268.116 50.858C267.519 50.6402 266.975 50.2732 266.482 49.7571C265.99 49.2363 265.594 48.5331 265.296 47.6477C264.998 46.7576 264.849 45.6402 264.849 44.2955C264.849 43.0076 264.969 41.8665 265.211 40.8722C265.452 39.8731 265.803 39.0327 266.262 38.3509C266.721 37.6643 267.275 37.1435 267.924 36.7884C268.577 36.4332 269.314 36.2557 270.133 36.2557C270.947 36.2557 271.672 36.419 272.306 36.7457C272.945 37.0677 273.466 37.5175 273.869 38.0952C274.271 38.6728 274.531 39.3381 274.65 40.0909H272.917C272.756 39.4375 272.443 38.8954 271.979 38.4645C271.515 38.0336 270.9 37.8182 270.133 37.8182C269.006 37.8182 268.118 38.3082 267.469 39.2884C266.826 40.2685 266.501 41.6439 266.496 43.4148H266.61C266.875 43.0123 267.19 42.669 267.555 42.3849C267.924 42.0961 268.331 41.8736 268.776 41.7173C269.221 41.5611 269.692 41.483 270.19 41.483C271.023 41.483 271.785 41.6913 272.477 42.108C273.168 42.5199 273.722 43.0904 274.138 43.8196C274.555 44.544 274.763 45.375 274.763 46.3125C274.763 47.2121 274.562 48.036 274.16 48.7841C273.757 49.5275 273.192 50.1193 272.462 50.5597C271.738 50.9953 270.886 51.2083 269.906 51.1989ZM269.906 49.6364C270.502 49.6364 271.037 49.4872 271.511 49.1889C271.989 48.8906 272.365 48.4905 272.64 47.9886C272.919 47.4867 273.059 46.928 273.059 46.3125C273.059 45.7112 272.924 45.1643 272.654 44.6719C272.389 44.1747 272.022 43.7794 271.553 43.4858C271.089 43.1922 270.559 43.0455 269.962 43.0455C269.513 43.0455 269.094 43.1354 268.705 43.3153C268.317 43.4905 267.976 43.732 267.683 44.0398C267.394 44.3475 267.166 44.7003 267.001 45.098C266.835 45.491 266.752 45.9053 266.752 46.3409C266.752 46.9186 266.887 47.4583 267.157 47.9602C267.432 48.4621 267.806 48.867 268.279 49.1747C268.757 49.4825 269.299 49.6364 269.906 49.6364ZM278.806 49.1392C278.456 49.1392 278.155 49.0137 277.904 48.7628C277.654 48.5118 277.528 48.2112 277.528 47.8608C277.528 47.5104 277.654 47.2098 277.904 46.9588C278.155 46.7079 278.456 46.5824 278.806 46.5824C279.157 46.5824 279.458 46.7079 279.708 46.9588C279.959 47.2098 280.085 47.5104 280.085 47.8608C280.085 48.0928 280.026 48.3059 279.907 48.5C279.794 48.6941 279.64 48.8504 279.446 48.9688C279.256 49.0824 279.043 49.1392 278.806 49.1392ZM278.806 41.7812C278.456 41.7812 278.155 41.6558 277.904 41.4048C277.654 41.1539 277.528 40.8532 277.528 40.5028C277.528 40.1525 277.654 39.8518 277.904 39.6009C278.155 39.3499 278.456 39.2244 278.806 39.2244C279.157 39.2244 279.458 39.3499 279.708 39.6009C279.959 39.8518 280.085 40.1525 280.085 40.5028C280.085 40.7348 280.026 40.9479 279.907 41.142C279.794 41.3362 279.64 41.4924 279.446 41.6108C279.256 41.7244 279.043 41.7812 278.806 41.7812ZM287.809 51.1989C286.739 51.1989 285.827 50.9077 285.074 50.3253C284.321 49.7382 283.746 48.8883 283.348 47.7756C282.951 46.6581 282.752 45.3087 282.752 43.7273C282.752 42.1553 282.951 40.813 283.348 39.7003C283.751 38.5829 284.328 37.7306 285.081 37.1435C285.839 36.5516 286.748 36.2557 287.809 36.2557C288.869 36.2557 289.776 36.5516 290.529 37.1435C291.286 37.7306 291.864 38.5829 292.262 39.7003C292.664 40.813 292.865 42.1553 292.865 43.7273C292.865 45.3087 292.667 46.6581 292.269 47.7756C291.871 48.8883 291.296 49.7382 290.543 50.3253C289.79 50.9077 288.879 51.1989 287.809 51.1989ZM287.809 49.6364C288.869 49.6364 289.693 49.125 290.28 48.1023C290.867 47.0795 291.161 45.6212 291.161 43.7273C291.161 42.4678 291.026 41.3954 290.756 40.5099C290.491 39.6245 290.107 38.9498 289.605 38.4858C289.108 38.0218 288.509 37.7898 287.809 37.7898C286.757 37.7898 285.936 38.3082 285.344 39.3452C284.752 40.3774 284.456 41.8381 284.456 43.7273C284.456 44.9867 284.589 46.0568 284.854 46.9375C285.119 47.8182 285.5 48.4882 285.998 48.9474C286.499 49.4067 287.103 49.6364 287.809 49.6364ZM300.309 51.1989C299.239 51.1989 298.327 50.9077 297.574 50.3253C296.821 49.7382 296.246 48.8883 295.848 47.7756C295.451 46.6581 295.252 45.3087 295.252 43.7273C295.252 42.1553 295.451 40.813 295.848 39.7003C296.251 38.5829 296.828 37.7306 297.581 37.1435C298.339 36.5516 299.248 36.2557 300.309 36.2557C301.369 36.2557 302.276 36.5516 303.029 37.1435C303.786 37.7306 304.364 38.5829 304.762 39.7003C305.164 40.813 305.365 42.1553 305.365 43.7273C305.365 45.3087 305.167 46.6581 304.769 47.7756C304.371 48.8883 303.796 49.7382 303.043 50.3253C302.29 50.9077 301.379 51.1989 300.309 51.1989ZM300.309 49.6364C301.369 49.6364 302.193 49.125 302.78 48.1023C303.367 47.0795 303.661 45.6212 303.661 43.7273C303.661 42.4678 303.526 41.3954 303.256 40.5099C302.991 39.6245 302.607 38.9498 302.105 38.4858C301.608 38.0218 301.009 37.7898 300.309 37.7898C299.257 37.7898 298.436 38.3082 297.844 39.3452C297.252 40.3774 296.956 41.8381 296.956 43.7273C296.956 44.9867 297.089 46.0568 297.354 46.9375C297.619 47.8182 298 48.4882 298.498 48.9474C298.999 49.4067 299.603 49.6364 300.309 49.6364ZM308.32 51V36.4545H313.235C314.376 36.4545 315.309 36.6605 316.033 37.0724C316.762 37.4796 317.302 38.0312 317.652 38.7273C318.003 39.4233 318.178 40.1998 318.178 41.0568C318.178 41.9138 318.003 42.6927 317.652 43.3935C317.307 44.0942 316.772 44.6529 316.047 45.0696C315.323 45.4815 314.395 45.6875 313.263 45.6875H309.74V44.125H313.206C313.988 44.125 314.615 43.9901 315.088 43.7202C315.562 43.4503 315.905 43.0857 316.118 42.6264C316.336 42.1624 316.445 41.6392 316.445 41.0568C316.445 40.4744 316.336 39.9536 316.118 39.4943C315.905 39.035 315.56 38.6752 315.081 38.4148C314.603 38.1496 313.969 38.017 313.178 38.017H310.081V51H308.32ZM321.015 36.4545H323.118L328.061 48.5284H328.231L333.174 36.4545H335.277V51H333.629V39.9489H333.487L328.941 51H327.35L322.805 39.9489H322.663V51H321.015V36.4545Z" fill="black"/>
<path d="M39.7159 40.0909C39.6307 39.3712 39.285 38.8125 38.679 38.4148C38.0729 38.017 37.3295 37.8182 36.4489 37.8182C35.8049 37.8182 35.2415 37.9223 34.7585 38.1307C34.2803 38.339 33.9063 38.6255 33.6364 38.9901C33.3712 39.3546 33.2386 39.7689 33.2386 40.233C33.2386 40.6212 33.331 40.955 33.5156 41.2344C33.705 41.509 33.9465 41.7386 34.2401 41.9233C34.5336 42.1032 34.8414 42.2524 35.1634 42.3707C35.4853 42.4844 35.7812 42.5767 36.0511 42.6477L37.5284 43.0455C37.9072 43.1449 38.3286 43.2822 38.7926 43.4574C39.2614 43.6326 39.7088 43.8717 40.1349 44.1747C40.5658 44.473 40.9209 44.8565 41.2003 45.3253C41.4796 45.794 41.6193 46.3693 41.6193 47.0511C41.6193 47.8371 41.4134 48.5473 41.0014 49.1818C40.5942 49.8163 39.9976 50.3205 39.2116 50.6946C38.4304 51.0687 37.4811 51.2557 36.3636 51.2557C35.322 51.2557 34.42 51.0876 33.6577 50.7514C32.9001 50.4152 32.3035 49.9465 31.8679 49.3452C31.437 48.7438 31.1932 48.0455 31.1364 47.25H32.9545C33.0019 47.7992 33.1866 48.2538 33.5085 48.6136C33.8352 48.9687 34.2472 49.2339 34.7443 49.4091C35.2462 49.5795 35.786 49.6648 36.3636 49.6648C37.036 49.6648 37.6397 49.5559 38.1747 49.3381C38.7098 49.1155 39.1335 48.8078 39.446 48.4148C39.7585 48.017 39.9148 47.553 39.9148 47.0227C39.9148 46.5398 39.7798 46.1468 39.5099 45.8438C39.2401 45.5407 38.8849 45.2945 38.4446 45.1051C38.0043 44.9157 37.5284 44.75 37.017 44.608L35.2273 44.0966C34.0909 43.7699 33.1913 43.3035 32.5284 42.6974C31.8655 42.0914 31.5341 41.2983 31.5341 40.3182C31.5341 39.5038 31.7543 38.7936 32.1946 38.1875C32.6397 37.5767 33.2363 37.1032 33.9844 36.767C34.7372 36.4261 35.5777 36.2557 36.5057 36.2557C37.4432 36.2557 38.2765 36.4238 39.0057 36.7599C39.7348 37.0914 40.3125 37.5459 40.7386 38.1236C41.1695 38.7012 41.3968 39.357 41.4205 40.0909H39.7159ZM47.4982 51.2557C46.8069 51.2557 46.1796 51.1255 45.6161 50.8651C45.0527 50.5999 44.6052 50.2188 44.2738 49.7216C43.9424 49.2197 43.7766 48.6136 43.7766 47.9034C43.7766 47.2784 43.8997 46.7718 44.146 46.3835C44.3922 45.9905 44.7212 45.6828 45.1332 45.4602C45.5451 45.2377 45.9996 45.072 46.4968 44.9631C46.9987 44.8494 47.503 44.7595 48.0096 44.6932C48.6725 44.608 49.2099 44.544 49.6218 44.5014C50.0385 44.4541 50.3415 44.3759 50.5309 44.267C50.725 44.1581 50.8221 43.9687 50.8221 43.6989V43.642C50.8221 42.9413 50.6303 42.3968 50.2468 42.0085C49.868 41.6203 49.2927 41.4261 48.521 41.4261C47.7208 41.4261 47.0934 41.6013 46.6388 41.9517C46.1843 42.3021 45.8647 42.6761 45.68 43.0739L44.0891 42.5057C44.3732 41.8428 44.752 41.3267 45.2255 40.9574C45.7037 40.5833 46.2246 40.3229 46.788 40.1761C47.3562 40.0246 47.9149 39.9489 48.4641 39.9489C48.8145 39.9489 49.217 39.9915 49.6715 40.0767C50.1308 40.1572 50.5735 40.3253 50.9996 40.581C51.4305 40.8366 51.788 41.2225 52.0721 41.7386C52.3562 42.2547 52.4982 42.946 52.4982 43.8125V51H50.8221V49.5227H50.7369C50.6232 49.7595 50.4338 50.0128 50.1687 50.2827C49.9035 50.5526 49.5508 50.7822 49.1104 50.9716C48.6701 51.161 48.1327 51.2557 47.4982 51.2557ZM47.7539 49.75C48.4168 49.75 48.9755 49.6198 49.43 49.3594C49.8893 49.099 50.235 48.7628 50.467 48.3509C50.7037 47.9389 50.8221 47.5057 50.8221 47.0511V45.517C50.7511 45.6023 50.5948 45.6804 50.3533 45.7514C50.1166 45.8177 49.842 45.8769 49.5295 45.929C49.2217 45.9763 48.921 46.0189 48.6275 46.0568C48.3387 46.09 48.1043 46.1184 47.9244 46.142C47.4888 46.1989 47.0816 46.2912 46.7028 46.419C46.3287 46.5421 46.0257 46.7292 45.7937 46.9801C45.5664 47.2263 45.4528 47.5625 45.4528 47.9886C45.4528 48.571 45.6682 49.0114 46.0991 49.3097C46.5347 49.6032 47.0863 49.75 47.7539 49.75ZM60.3018 40.0909V41.5114H54.6484V40.0909H60.3018ZM56.2962 37.4773H57.9723V47.875C57.9723 48.3485 58.041 48.7036 58.1783 48.9403C58.3203 49.1723 58.5002 49.3286 58.718 49.4091C58.9406 49.4848 59.175 49.5227 59.4212 49.5227C59.6058 49.5227 59.7573 49.5133 59.8757 49.4943C59.9941 49.4706 60.0888 49.4517 60.1598 49.4375L60.5007 50.9432C60.3871 50.9858 60.2285 51.0284 60.0249 51.071C59.8213 51.1184 59.5632 51.142 59.2507 51.142C58.7772 51.142 58.3132 51.0402 57.8587 50.8366C57.4089 50.633 57.0348 50.3229 56.7365 49.9062C56.4429 49.4896 56.2962 48.964 56.2962 48.3295V37.4773ZM69.6982 46.5398V40.0909H71.3743V51H69.6982V49.1534H69.5845C69.3288 49.7074 68.9311 50.1785 68.3913 50.5668C67.8516 50.9503 67.1697 51.142 66.3459 51.142C65.6641 51.142 65.058 50.9929 64.5277 50.6946C63.9974 50.3916 63.5807 49.937 63.2777 49.331C62.9747 48.7202 62.8232 47.9508 62.8232 47.0227V40.0909H64.4993V46.9091C64.4993 47.7045 64.7218 48.339 65.1669 48.8125C65.6167 49.286 66.1896 49.5227 66.8857 49.5227C67.3023 49.5227 67.7261 49.4162 68.157 49.2031C68.5926 48.9901 68.9571 48.6634 69.2507 48.223C69.549 47.7827 69.6982 47.2216 69.6982 46.5398ZM74.4442 51V40.0909H76.0636V41.7386H76.1772C76.3761 41.1989 76.7359 40.7609 77.2567 40.4247C77.7776 40.0885 78.3647 39.9205 79.0181 39.9205C79.1412 39.9205 79.2951 39.9228 79.4798 39.9276C79.6644 39.9323 79.8041 39.9394 79.8988 39.9489V41.6534C79.842 41.6392 79.7118 41.6179 79.5082 41.5895C79.3093 41.5563 79.0986 41.5398 78.8761 41.5398C78.3458 41.5398 77.8723 41.651 77.4556 41.8736C77.0437 42.0914 76.717 42.3944 76.4755 42.7827C76.2388 43.1662 76.1204 43.6042 76.1204 44.0966V51H74.4442ZM85.6729 51.2273C84.7638 51.2273 83.9613 50.9976 83.2653 50.5384C82.5692 50.0743 82.0247 49.4209 81.6317 48.5781C81.2388 47.7306 81.0423 46.7292 81.0423 45.5739C81.0423 44.428 81.2388 43.4337 81.6317 42.5909C82.0247 41.7481 82.5716 41.0971 83.2724 40.6378C83.9731 40.1785 84.7828 39.9489 85.7013 39.9489C86.4116 39.9489 86.9727 40.0672 87.3846 40.304C87.8013 40.536 88.1185 40.8011 88.3363 41.0994C88.5588 41.393 88.7317 41.6345 88.8548 41.8239H88.9968V36.4545H90.6729V51H89.0536V49.3239H88.8548C88.7317 49.5227 88.5565 49.7737 88.3292 50.0767C88.1019 50.375 87.7776 50.6425 87.3562 50.8793C86.9348 51.1113 86.3737 51.2273 85.6729 51.2273ZM85.9002 49.7216C86.5726 49.7216 87.1407 49.5464 87.6048 49.196C88.0688 48.8409 88.4215 48.3509 88.663 47.7259C88.9045 47.0961 89.0252 46.3693 89.0252 45.5455C89.0252 44.7311 88.9068 44.0185 88.6701 43.4077C88.4334 42.7921 88.083 42.3139 87.619 41.973C87.1549 41.6274 86.582 41.4545 85.9002 41.4545C85.19 41.4545 84.5981 41.6368 84.1246 42.0014C83.6559 42.3613 83.3031 42.8513 83.0664 43.4716C82.8344 44.0871 82.7184 44.7784 82.7184 45.5455C82.7184 46.322 82.8368 47.0275 83.0735 47.6619C83.315 48.2917 83.6701 48.7936 84.1388 49.1676C84.6123 49.5369 85.1995 49.7216 85.9002 49.7216ZM97.1857 51.2557C96.4944 51.2557 95.8671 51.1255 95.3036 50.8651C94.7402 50.5999 94.2927 50.2188 93.9613 49.7216C93.6299 49.2197 93.4641 48.6136 93.4641 47.9034C93.4641 47.2784 93.5872 46.7718 93.8335 46.3835C94.0797 45.9905 94.4087 45.6828 94.8207 45.4602C95.2326 45.2377 95.6871 45.072 96.1843 44.9631C96.6862 44.8494 97.1905 44.7595 97.6971 44.6932C98.36 44.608 98.8974 44.544 99.3093 44.5014C99.726 44.4541 100.029 44.3759 100.218 44.267C100.413 44.1581 100.51 43.9687 100.51 43.6989V43.642C100.51 42.9413 100.318 42.3968 99.9343 42.0085C99.5555 41.6203 98.9802 41.4261 98.2085 41.4261C97.4083 41.4261 96.7809 41.6013 96.3263 41.9517C95.8718 42.3021 95.5522 42.6761 95.3675 43.0739L93.7766 42.5057C94.0607 41.8428 94.4395 41.3267 94.913 40.9574C95.3912 40.5833 95.9121 40.3229 96.4755 40.1761C97.0437 40.0246 97.6024 39.9489 98.1516 39.9489C98.502 39.9489 98.9045 39.9915 99.359 40.0767C99.8183 40.1572 100.261 40.3253 100.687 40.581C101.118 40.8366 101.475 41.2225 101.76 41.7386C102.044 42.2547 102.186 42.946 102.186 43.8125V51H100.51V49.5227H100.424C100.311 49.7595 100.121 50.0128 99.8562 50.2827C99.591 50.5526 99.2383 50.7822 98.7979 50.9716C98.3576 51.161 97.8202 51.2557 97.1857 51.2557ZM97.4414 49.75C98.1043 49.75 98.663 49.6198 99.1175 49.3594C99.5768 49.099 99.9225 48.7628 100.154 48.3509C100.391 47.9389 100.51 47.5057 100.51 47.0511V45.517C100.439 45.6023 100.282 45.6804 100.041 45.7514C99.8041 45.8177 99.5295 45.8769 99.217 45.929C98.9092 45.9763 98.6085 46.0189 98.315 46.0568C98.0262 46.09 97.7918 46.1184 97.6119 46.142C97.1763 46.1989 96.7691 46.2912 96.3903 46.419C96.0162 46.5421 95.7132 46.7292 95.4812 46.9801C95.2539 47.2263 95.1403 47.5625 95.1403 47.9886C95.1403 48.571 95.3557 49.0114 95.7866 49.3097C96.2222 49.6032 96.7738 49.75 97.4414 49.75ZM105.934 55.0909C105.65 55.0909 105.397 55.0672 105.174 55.0199C104.951 54.9773 104.798 54.9347 104.712 54.892L105.138 53.4148C105.546 53.5189 105.906 53.5568 106.218 53.5284C106.531 53.5 106.808 53.3603 107.049 53.1094C107.295 52.8632 107.52 52.4631 107.724 51.9091L108.036 51.0568L104.002 40.0909H105.82L108.832 48.7841H108.945L111.957 40.0909H113.775L109.144 52.5909C108.936 53.1544 108.678 53.6207 108.37 53.9901C108.062 54.3641 107.705 54.6411 107.298 54.821C106.895 55.0009 106.441 55.0909 105.934 55.0909Z" fill="black"/>
<path d="M39.7159 40.0909C39.6307 39.3712 39.285 38.8125 38.679 38.4148C38.0729 38.017 37.3295 37.8182 36.4489 37.8182C35.8049 37.8182 35.2415 37.9223 34.7585 38.1307C34.2803 38.339 33.9063 38.6255 33.6364 38.9901C33.3712 39.3546 33.2386 39.7689 33.2386 40.233C33.2386 40.6212 33.331 40.955 33.5156 41.2344C33.705 41.509 33.9465 41.7386 34.2401 41.9233C34.5336 42.1032 34.8414 42.2524 35.1634 42.3707C35.4853 42.4844 35.7812 42.5767 36.0511 42.6477L37.5284 43.0455C37.9072 43.1449 38.3286 43.2822 38.7926 43.4574C39.2614 43.6326 39.7088 43.8717 40.1349 44.1747C40.5658 44.473 40.9209 44.8565 41.2003 45.3253C41.4796 45.794 41.6193 46.3693 41.6193 47.0511C41.6193 47.8371 41.4134 48.5473 41.0014 49.1818C40.5942 49.8163 39.9976 50.3205 39.2116 50.6946C38.4304 51.0687 37.4811 51.2557 36.3636 51.2557C35.322 51.2557 34.42 51.0876 33.6577 50.7514C32.9001 50.4152 32.3035 49.9465 31.8679 49.3452C31.437 48.7438 31.1932 48.0455 31.1364 47.25H32.9545C33.0019 47.7992 33.1866 48.2538 33.5085 48.6136C33.8352 48.9687 34.2472 49.2339 34.7443 49.4091C35.2462 49.5795 35.786 49.6648 36.3636 49.6648C37.036 49.6648 37.6397 49.5559 38.1747 49.3381C38.7098 49.1155 39.1335 48.8078 39.446 48.4148C39.7585 48.017 39.9148 47.553 39.9148 47.0227C39.9148 46.5398 39.7798 46.1468 39.5099 45.8438C39.2401 45.5407 38.8849 45.2945 38.4446 45.1051C38.0043 44.9157 37.5284 44.75 37.017 44.608L35.2273 44.0966C34.0909 43.7699 33.1913 43.3035 32.5284 42.6974C31.8655 42.0914 31.5341 41.2983 31.5341 40.3182C31.5341 39.5038 31.7543 38.7936 32.1946 38.1875C32.6397 37.5767 33.2363 37.1032 33.9844 36.767C34.7372 36.4261 35.5777 36.2557 36.5057 36.2557C37.4432 36.2557 38.2765 36.4238 39.0057 36.7599C39.7348 37.0914 40.3125 37.5459 40.7386 38.1236C41.1695 38.7012 41.3968 39.357 41.4205 40.0909H39.7159ZM47.4982 51.2557C46.8069 51.2557 46.1796 51.1255 45.6161 50.8651C45.0527 50.5999 44.6052 50.2188 44.2738 49.7216C43.9424 49.2197 43.7766 48.6136 43.7766 47.9034C43.7766 47.2784 43.8997 46.7718 44.146 46.3835C44.3922 45.9905 44.7212 45.6828 45.1332 45.4602C45.5451 45.2377 45.9996 45.072 46.4968 44.9631C46.9987 44.8494 47.503 44.7595 48.0096 44.6932C48.6725 44.608 49.2099 44.544 49.6218 44.5014C50.0385 44.4541 50.3415 44.3759 50.5309 44.267C50.725 44.1581 50.8221 43.9687 50.8221 43.6989V43.642C50.8221 42.9413 50.6303 42.3968 50.2468 42.0085C49.868 41.6203 49.2927 41.4261 48.521 41.4261C47.7208 41.4261 47.0934 41.6013 46.6388 41.9517C46.1843 42.3021 45.8647 42.6761 45.68 43.0739L44.0891 42.5057C44.3732 41.8428 44.752 41.3267 45.2255 40.9574C45.7037 40.5833 46.2246 40.3229 46.788 40.1761C47.3562 40.0246 47.9149 39.9489 48.4641 39.9489C48.8145 39.9489 49.217 39.9915 49.6715 40.0767C50.1308 40.1572 50.5735 40.3253 50.9996 40.581C51.4305 40.8366 51.788 41.2225 52.0721 41.7386C52.3562 42.2547 52.4982 42.946 52.4982 43.8125V51H50.8221V49.5227H50.7369C50.6232 49.7595 50.4338 50.0128 50.1687 50.2827C49.9035 50.5526 49.5508 50.7822 49.1104 50.9716C48.6701 51.161 48.1327 51.2557 47.4982 51.2557ZM47.7539 49.75C48.4168 49.75 48.9755 49.6198 49.43 49.3594C49.8893 49.099 50.235 48.7628 50.467 48.3509C50.7037 47.9389 50.8221 47.5057 50.8221 47.0511V45.517C50.7511 45.6023 50.5948 45.6804 50.3533 45.7514C50.1166 45.8177 49.842 45.8769 49.5295 45.929C49.2217 45.9763 48.921 46.0189 48.6275 46.0568C48.3387 46.09 48.1043 46.1184 47.9244 46.142C47.4888 46.1989 47.0816 46.2912 46.7028 46.419C46.3287 46.5421 46.0257 46.7292 45.7937 46.9801C45.5664 47.2263 45.4528 47.5625 45.4528 47.9886C45.4528 48.571 45.6682 49.0114 46.0991 49.3097C46.5347 49.6032 47.0863 49.75 47.7539 49.75ZM60.3018 40.0909V41.5114H54.6484V40.0909H60.3018ZM56.2962 37.4773H57.9723V47.875C57.9723 48.3485 58.041 48.7036 58.1783 48.9403C58.3203 49.1723 58.5002 49.3286 58.718 49.4091C58.9406 49.4848 59.175 49.5227 59.4212 49.5227C59.6058 49.5227 59.7573 49.5133 59.8757 49.4943C59.9941 49.4706 60.0888 49.4517 60.1598 49.4375L60.5007 50.9432C60.3871 50.9858 60.2285 51.0284 60.0249 51.071C59.8213 51.1184 59.5632 51.142 59.2507 51.142C58.7772 51.142 58.3132 51.0402 57.8587 50.8366C57.4089 50.633 57.0348 50.3229 56.7365 49.9062C56.4429 49.4896 56.2962 48.964 56.2962 48.3295V37.4773ZM69.6982 46.5398V40.0909H71.3743V51H69.6982V49.1534H69.5845C69.3288 49.7074 68.9311 50.1785 68.3913 50.5668C67.8516 50.9503 67.1697 51.142 66.3459 51.142C65.6641 51.142 65.058 50.9929 64.5277 50.6946C63.9974 50.3916 63.5807 49.937 63.2777 49.331C62.9747 48.7202 62.8232 47.9508 62.8232 47.0227V40.0909H64.4993V46.9091C64.4993 47.7045 64.7218 48.339 65.1669 48.8125C65.6167 49.286 66.1896 49.5227 66.8857 49.5227C67.3023 49.5227 67.7261 49.4162 68.157 49.2031C68.5926 48.9901 68.9571 48.6634 69.2507 48.223C69.549 47.7827 69.6982 47.2216 69.6982 46.5398ZM74.4442 51V40.0909H76.0636V41.7386H76.1772C76.3761 41.1989 76.7359 40.7609 77.2567 40.4247C77.7776 40.0885 78.3647 39.9205 79.0181 39.9205C79.1412 39.9205 79.2951 39.9228 79.4798 39.9276C79.6644 39.9323 79.8041 39.9394 79.8988 39.9489V41.6534C79.842 41.6392 79.7118 41.6179 79.5082 41.5895C79.3093 41.5563 79.0986 41.5398 78.8761 41.5398C78.3458 41.5398 77.8723 41.651 77.4556 41.8736C77.0437 42.0914 76.717 42.3944 76.4755 42.7827C76.2388 43.1662 76.1204 43.6042 76.1204 44.0966V51H74.4442ZM85.6729 51.2273C84.7638 51.2273 83.9613 50.9976 83.2653 50.5384C82.5692 50.0743 82.0247 49.4209 81.6317 48.5781C81.2388 47.7306 81.0423 46.7292 81.0423 45.5739C81.0423 44.428 81.2388 43.4337 81.6317 42.5909C82.0247 41.7481 82.5716 41.0971 83.2724 40.6378C83.9731 40.1785 84.7828 39.9489 85.7013 39.9489C86.4116 39.9489 86.9727 40.0672 87.3846 40.304C87.8013 40.536 88.1185 40.8011 88.3363 41.0994C88.5588 41.393 88.7317 41.6345 88.8548 41.8239H88.9968V36.4545H90.6729V51H89.0536V49.3239H88.8548C88.7317 49.5227 88.5565 49.7737 88.3292 50.0767C88.1019 50.375 87.7776 50.6425 87.3562 50.8793C86.9348 51.1113 86.3737 51.2273 85.6729 51.2273ZM85.9002 49.7216C86.5726 49.7216 87.1407 49.5464 87.6048 49.196C88.0688 48.8409 88.4215 48.3509 88.663 47.7259C88.9045 47.0961 89.0252 46.3693 89.0252 45.5455C89.0252 44.7311 88.9068 44.0185 88.6701 43.4077C88.4334 42.7921 88.083 42.3139 87.619 41.973C87.1549 41.6274 86.582 41.4545 85.9002 41.4545C85.19 41.4545 84.5981 41.6368 84.1246 42.0014C83.6559 42.3613 83.3031 42.8513 83.0664 43.4716C82.8344 44.0871 82.7184 44.7784 82.7184 45.5455C82.7184 46.322 82.8368 47.0275 83.0735 47.6619C83.315 48.2917 83.6701 48.7936 84.1388 49.1676C84.6123 49.5369 85.1995 49.7216 85.9002 49.7216ZM97.1857 51.2557C96.4944 51.2557 95.8671 51.1255 95.3036 50.8651C94.7402 50.5999 94.2927 50.2188 93.9613 49.7216C93.6299 49.2197 93.4641 48.6136 93.4641 47.9034C93.4641 47.2784 93.5872 46.7718 93.8335 46.3835C94.0797 45.9905 94.4087 45.6828 94.8207 45.4602C95.2326 45.2377 95.6871 45.072 96.1843 44.9631C96.6862 44.8494 97.1905 44.7595 97.6971 44.6932C98.36 44.608 98.8974 44.544 99.3093 44.5014C99.726 44.4541 100.029 44.3759 100.218 44.267C100.413 44.1581 100.51 43.9687 100.51 43.6989V43.642C100.51 42.9413 100.318 42.3968 99.9343 42.0085C99.5555 41.6203 98.9802 41.4261 98.2085 41.4261C97.4083 41.4261 96.7809 41.6013 96.3263 41.9517C95.8718 42.3021 95.5522 42.6761 95.3675 43.0739L93.7766 42.5057C94.0607 41.8428 94.4395 41.3267 94.913 40.9574C95.3912 40.5833 95.9121 40.3229 96.4755 40.1761C97.0437 40.0246 97.6024 39.9489 98.1516 39.9489C98.502 39.9489 98.9045 39.9915 99.359 40.0767C99.8183 40.1572 100.261 40.3253 100.687 40.581C101.118 40.8366 101.475 41.2225 101.76 41.7386C102.044 42.2547 102.186 42.946 102.186 43.8125V51H100.51V49.5227H100.424C100.311 49.7595 100.121 50.0128 99.8562 50.2827C99.591 50.5526 99.2383 50.7822 98.7979 50.9716C98.3576 51.161 97.8202 51.2557 97.1857 51.2557ZM97.4414 49.75C98.1043 49.75 98.663 49.6198 99.1175 49.3594C99.5768 49.099 99.9225 48.7628 100.154 48.3509C100.391 47.9389 100.51 47.5057 100.51 47.0511V45.517C100.439 45.6023 100.282 45.6804 100.041 45.7514C99.8041 45.8177 99.5295 45.8769 99.217 45.929C98.9092 45.9763 98.6085 46.0189 98.315 46.0568C98.0262 46.09 97.7918 46.1184 97.6119 46.142C97.1763 46.1989 96.7691 46.2912 96.3903 46.419C96.0162 46.5421 95.7132 46.7292 95.4812 46.9801C95.2539 47.2263 95.1403 47.5625 95.1403 47.9886C95.1403 48.571 95.3557 49.0114 95.7866 49.3097C96.2222 49.6032 96.7738 49.75 97.4414 49.75ZM105.934 55.0909C105.65 55.0909 105.397 55.0672 105.174 55.0199C104.951 54.9773 104.798 54.9347 104.712 54.892L105.138 53.4148C105.546 53.5189 105.906 53.5568 106.218 53.5284C106.531 53.5 106.808 53.3603 107.049 53.1094C107.295 52.8632 107.52 52.4631 107.724 51.9091L108.036 51.0568L104.002 40.0909H105.82L108.832 48.7841H108.945L111.957 40.0909H113.775L109.144 52.5909C108.936 53.1544 108.678 53.6207 108.37 53.9901C108.062 54.3641 107.705 54.6411 107.298 54.821C106.895 55.0009 106.441 55.0909 105.934 55.0909Z" fill="black" fill-opacity="0.2"/>
<path d="M0.5 29.5L140.496 30.5695" stroke="black" stroke-width="3"/>
<path d="M0.5 58H140.5" stroke="black" stroke-width="3"/>
<path d="M209 31L349 31" stroke="black" stroke-width="3"/>
<path d="M209 58L349 58" stroke="black" stroke-width="3"/>
</svg>
