<?xml version="1.0" standalone="no"?>
<!DOCTYPE svg PUBLIC "-//W3C//DTD SVG 20010904//EN"
 "http://www.w3.org/TR/2001/REC-SVG-20010904/DTD/svg10.dtd">
<svg version="1.0" xmlns="http://www.w3.org/2000/svg"
 width="995.000000pt" height="1387.000000pt" viewBox="0 0 995.000000 1387.000000"
 preserveAspectRatio="xMidYMid meet">

<g transform="translate(0.000000,1387.000000) scale(0.100000,-0.100000)"
fill="#000000" stroke="none">
<path d="M802 13853 c3 -17 33 -18 487 -21 473 -2 483 -3 488 -22 6 -23 23
-27 23 -6 0 8 7 17 17 20 9 4 514 6 1122 6 608 0 1151 0 1206 1 l100 2 -70 7
c-38 4 -81 11 -95 16 -14 5 -758 10 -1653 11 -1554 3 -1628 3 -1625 -14z"/>
<path d="M6022 13804 c10 -11 39 -17 84 -20 71 -4 67 0 -31 25 -60 16 -73 15
-53 -5z"/>
<path d="M1805 13700 c3 -14 8 -44 11 -67 7 -43 34 -62 34 -23 0 20 -20 71
-31 80 -3 3 -9 12 -13 20 -3 8 -4 4 -1 -10z"/>
<path d="M6330 13701 c0 -5 7 -14 15 -21 16 -13 19 -49 8 -88 -4 -18 -8 -21
-15 -10 -7 9 -8 8 -4 -5 6 -18 -38 -107 -53 -107 -4 0 -13 -16 -21 -35 -8 -19
-19 -35 -26 -35 -7 0 -20 -7 -28 -16 -15 -14 -16 -14 -16 0 0 9 -4 16 -10 16
-13 0 -13 -6 0 -31 12 -21 6 -32 -52 -86 -7 -7 -22 -24 -33 -39 -11 -14 -26
-31 -33 -37 -7 -7 -22 -20 -33 -29 -10 -10 -23 -18 -29 -18 -5 0 -10 -7 -10
-15 0 -9 -12 -21 -26 -27 -24 -11 -29 -10 -48 14 -17 22 -23 24 -33 13 -7 -8
-13 -23 -13 -34 0 -11 -4 -23 -10 -26 -13 -8 -13 35 1 92 10 37 9 47 -2 55
-11 8 -10 9 4 4 13 -4 17 0 17 18 0 14 3 26 8 28 4 2 15 16 24 33 9 16 22 31
30 34 7 2 3 -7 -10 -21 -14 -15 -20 -31 -16 -42 3 -9 1 -23 -6 -31 -7 -9 -10
-18 -6 -22 3 -3 6 -2 6 3 0 5 14 11 31 12 41 3 52 10 45 29 -5 11 -2 13 10 9
12 -4 15 -2 10 9 -3 10 1 15 13 15 10 0 24 7 31 15 7 8 20 15 29 15 19 0 81
62 81 80 0 7 -8 10 -20 7 -17 -4 -20 0 -20 24 0 27 -3 29 -37 29 -21 0 -45 -5
-53 -11 -11 -8 -6 -9 22 -6 33 5 48 -4 48 -28 0 -9 -46 -12 -57 -3 -10 8 -13
7 -13 -4 0 -20 -37 -48 -63 -47 -12 0 -16 3 -9 6 6 2 12 11 12 18 0 7 9 15 20
18 32 8 25 30 -7 23 -51 -12 -93 -14 -99 -5 -8 14 -71 11 -102 -5 -41 -21
-113 -31 -122 -17 -5 9 -14 9 -31 2 -13 -5 -37 -13 -54 -16 -26 -6 -28 -8 -10
-15 19 -7 19 -7 -3 -19 -12 -6 -23 -8 -23 -4 -1 4 -2 14 -3 22 -1 15 -19 21
-71 25 -16 1 -40 8 -53 15 -32 17 -82 5 -82 -20 0 -16 -7 -19 -41 -19 -27 0
-38 -4 -33 -11 4 -7 0 -9 -12 -5 -28 8 -40 -4 -47 -49 -3 -22 -3 -32 -1 -22 3
9 9 17 14 17 4 0 11 10 14 23 6 21 7 21 20 5 19 -25 26 -22 27 10 2 23 2 24 6
4 2 -12 8 -20 12 -17 5 2 8 -10 7 -28 -1 -33 -21 -76 -40 -89 -6 -5 -1 -8 12
-8 22 0 30 -14 13 -25 -6 -3 -33 -7 -61 -9 l-52 -4 7 37 6 36 -20 -32 c-18
-29 -19 -39 -11 -85 10 -52 37 -88 65 -88 7 0 15 -3 17 -7 3 -7 35 -24 98 -51
14 -6 42 -13 62 -17 23 -3 39 -12 43 -24 3 -10 33 -46 66 -80 46 -46 67 -61
89 -61 16 0 32 -4 35 -10 8 -14 71 -13 97 1 18 9 24 8 35 -7 12 -16 13 -16 13
-1 0 9 6 17 13 17 6 0 4 5 -6 11 -12 7 -16 18 -12 37 4 22 4 23 -4 7 -8 -18
-9 -19 -16 -3 -4 10 -11 15 -16 12 -5 -3 -4 6 2 20 9 20 9 29 -1 41 -11 13 -9
15 13 15 29 0 44 -15 25 -24 -7 -4 8 -4 34 -1 34 3 48 1 52 -10 6 -17 46 -21
46 -5 0 6 10 5 25 -2 21 -9 29 -9 41 4 20 20 11 52 -18 65 -20 9 -20 10 -3 27
15 15 16 19 4 28 -10 7 -4 8 21 4 22 -4 30 -3 21 3 -10 7 -11 13 -2 30 6 11
15 20 19 20 19 -3 33 2 27 10 -7 13 16 61 30 61 13 0 61 52 119 130 22 30 47
59 53 63 7 4 13 15 13 23 0 8 4 13 9 10 10 -7 35 27 46 64 4 14 25 50 46 80
22 31 39 61 39 68 0 7 5 12 10 12 22 0 8 40 -25 69 -38 33 -45 36 -45 22z
m-670 -299 c0 -11 -47 -44 -92 -65 -21 -10 -38 -22 -38 -27 0 -6 -4 -10 -10
-10 -18 0 2 28 28 39 15 7 42 25 61 41 34 30 51 37 51 22z m238 -20 c4 -26
-13 -52 -34 -52 -10 0 -14 13 -14 41 0 36 2 40 23 37 14 -2 23 -11 25 -26z
m-198 -20 c0 -13 -12 -22 -22 -16 -10 6 -1 24 13 24 5 0 9 -4 9 -8z m-223 -86
c-10 -8 -15 -20 -11 -30 8 -20 -23 -33 -39 -17 -8 8 -5 17 13 36 14 13 32 24
40 24 12 0 11 -2 -3 -13z m-142 -46 c3 -5 2 -10 -4 -10 -5 0 -13 5 -16 10 -3
6 -2 10 4 10 5 0 13 -4 16 -10z m324 -88 c6 -10 6 -24 1 -32 -7 -12 -12 -11
-28 4 -19 17 -21 17 -31 -1 -9 -16 -10 -15 -11 8 0 14 3 29 7 32 13 14 53 7
62 -11z m211 -81 c0 -6 -4 -13 -10 -16 -5 -3 -10 1 -10 9 0 9 5 16 10 16 6 0
10 -4 10 -9z m-9 -88 c-9 -16 -10 -15 -11 8 0 14 3 29 8 33 12 12 14 -22 3
-41z m-151 -153 c0 -5 -7 -10 -16 -10 -8 0 -12 5 -9 10 3 6 10 10 16 10 5 0 9
-4 9 -10z"/>
<path d="M1830 13550 c0 -5 7 -10 15 -10 8 0 15 5 15 10 0 6 -7 10 -15 10 -8
0 -15 -4 -15 -10z"/>
<path d="M3646 13542 c-3 -6 -15 -8 -26 -5 -11 3 -20 0 -20 -6 0 -14 -48 -61
-84 -82 -42 -24 -127 -111 -122 -125 3 -7 -4 -20 -15 -30 -10 -9 -19 -23 -19
-29 0 -12 -31 -37 -77 -62 -14 -7 -23 -8 -23 -2 0 6 -4 7 -10 4 -5 -3 -10 -23
-10 -43 0 -30 7 -43 35 -67 20 -17 35 -39 35 -52 0 -12 5 -25 10 -28 18 -11
11 -54 -21 -120 -31 -67 -61 -97 -85 -88 -8 3 -21 0 -29 -7 -13 -11 -11 -16
20 -37 19 -13 61 -33 92 -45 72 -26 98 -53 119 -123 15 -55 13 -87 -11 -115
-27 -32 -27 -70 0 -101 14 -17 25 -38 26 -47 0 -9 2 -26 4 -38 3 -11 -7 -39
-21 -61 -26 -38 -55 -56 -139 -83 -22 -7 -43 -17 -47 -23 -9 -15 14 -47 35
-47 10 0 15 -4 12 -10 -4 -6 6 -10 22 -10 28 0 57 -29 112 -114 24 -37 83 -59
143 -54 29 3 62 2 74 -2 29 -11 111 8 127 29 27 39 90 36 178 -9 9 -5 36 -11
61 -15 34 -5 49 -3 61 9 9 9 33 16 54 16 44 1 90 37 124 97 23 40 38 143 22
143 -5 0 -10 18 -11 40 -2 45 8 49 45 20 14 -11 37 -20 50 -20 29 0 72 44 80
82 3 14 16 37 29 49 18 17 24 33 24 63 0 36 5 44 35 63 46 30 74 87 65 131 -4
17 -4 32 1 32 5 0 9 -6 9 -14 0 -13 56 -46 80 -46 15 0 59 -101 62 -145 1 -19
5 -35 9 -35 3 0 9 -24 12 -54 5 -52 21 -93 42 -108 20 -15 24 -8 13 20 -6 15
-11 53 -12 84 -1 46 2 58 15 58 8 0 20 -5 26 -11 6 -6 19 -9 28 -7 15 2 13 7
-10 30 -28 28 -27 52 2 41 21 -8 73 -66 95 -106 13 -22 17 -51 16 -103 -1 -64
2 -76 28 -114 43 -64 54 -63 54 5 l0 57 26 -17 c38 -24 40 -11 5 23 -17 16
-31 34 -31 40 0 6 -12 23 -26 39 -37 40 -134 179 -134 192 0 15 6 14 35 -5 13
-9 30 -14 37 -11 9 4 7 6 -3 6 -20 1 -34 32 -19 41 5 3 -5 6 -23 6 -36 1 -146
62 -147 82 0 6 5 12 10 12 6 0 10 -4 10 -10 0 -6 18 -7 45 -3 33 4 50 2 63 -9
40 -34 172 -58 172 -32 0 8 -6 14 -12 14 -10 0 -9 3 1 9 10 7 11 13 2 27 -6
11 -11 13 -11 7 0 -8 -14 -13 -35 -13 -28 0 -38 5 -47 24 -24 54 17 74 64 31
28 -26 48 -32 48 -16 0 12 -57 56 -90 70 -20 9 -12 10 35 5 33 -3 69 -8 80
-11 18 -5 18 -4 6 11 -10 12 -24 15 -48 11 -22 -3 -32 -1 -28 5 4 6 -8 10 -29
10 -20 0 -36 4 -36 9 0 5 -18 11 -40 15 -22 3 -40 10 -40 14 0 4 -26 9 -57 10
-32 2 -60 7 -63 11 -3 5 -31 12 -63 15 -37 5 -60 13 -64 22 -9 23 4 27 29 10
28 -20 38 -20 38 -1 0 9 15 22 33 31 38 18 57 44 68 92 6 29 5 32 -9 26 -37
-15 -73 -15 -124 0 -29 9 -70 17 -92 18 -37 3 -39 4 -41 41 -2 31 -11 47 -44
79 -22 22 -41 49 -41 60 0 11 -9 31 -20 45 -11 14 -20 23 -20 19 0 -4 -11 4
-24 18 -13 15 -34 26 -49 26 -14 0 -29 5 -33 11 -4 8 -30 10 -75 7 -38 -3 -70
-3 -73 -1 -2 3 9 24 25 47 22 31 29 49 24 67 -7 29 -52 59 -88 59 -44 0 -149
-31 -189 -56 -21 -13 -44 -24 -53 -24 -17 0 -21 25 -5 35 33 20 -21 87 -81
100 -19 4 -38 11 -44 15 -17 13 -93 22 -99 12z m699 -531 c6 -11 -33 -36 -42
-27 -7 7 16 36 28 36 4 0 10 -4 14 -9z m65 -1 c0 -5 -4 -10 -10 -10 -5 0 -10
5 -10 10 0 6 5 10 10 10 6 0 10 -4 10 -10z m-140 -69 l-1 -26 -17 28 c-9 15
-21 27 -27 27 -5 0 -3 4 5 10 20 13 40 -6 40 -39z m110 -122 c0 -14 -17 -10
-23 5 -4 10 -1 13 9 9 7 -3 14 -9 14 -14z m-1010 -19 c0 -5 -4 -10 -10 -10 -5
0 -10 5 -10 10 0 6 5 10 10 10 6 0 10 -4 10 -10z m1047 -81 c-5 -77 -30 -94
-41 -28 -4 22 -1 59 5 82 l11 42 14 -26 c7 -15 12 -46 11 -70z m61 49 c-3 -7
-11 -13 -18 -13 -7 0 -15 6 -17 13 -3 7 4 12 17 12 13 0 20 -5 18 -12z m12
-43 c0 -8 -7 -15 -15 -15 -26 0 -18 20 13 29 1 1 2 -6 2 -14z m-637 -54 c4 -1
7 -6 7 -12 0 -15 -63 -7 -68 9 -3 9 4 12 25 8 15 -2 31 -5 36 -5z m534 -73
c-3 -7 -5 -2 -5 12 0 14 2 19 5 13 2 -7 2 -19 0 -25z m436 3 c-4 -3 -11 -10
-15 -15 -5 -5 -8 0 -8 12 0 15 4 20 16 15 9 -3 12 -9 7 -12z m-1122 -23 c11
-21 11 -22 -4 -9 -10 7 -17 17 -17 22 0 15 9 10 21 -13z m1024 -38 c3 -5 1
-10 -4 -10 -6 0 -11 5 -11 10 0 6 2 10 4 10 3 0 8 -4 11 -10z m72 -53 c40 -38
38 -57 -8 -57 -19 0 -29 5 -29 15 0 8 -4 15 -10 15 -5 0 -10 8 -10 18 0 10 -5
23 -12 30 -9 9 -7 12 10 12 12 0 39 -15 59 -33z"/>
<path d="M1830 13501 c0 -12 5 -21 10 -21 6 0 10 6 10 14 0 8 -4 18 -10 21 -5
3 -10 -3 -10 -14z"/>
<path d="M1230 13478 c0 -36 4 -35 14 5 4 16 2 27 -4 27 -5 0 -10 -14 -10 -32z"/>
<path d="M1240 13410 c0 -16 5 -30 10 -30 6 0 10 14 10 30 0 17 -4 30 -10 30
-5 0 -10 -13 -10 -30z"/>
<path d="M2069 13392 c-13 -16 -41 -38 -62 -50 -57 -30 -91 -83 -102 -156 -4
-25 -11 -49 -16 -52 -5 -3 -9 -20 -9 -38 0 -19 -6 -45 -13 -59 -10 -20 -17
-23 -31 -15 -13 7 -22 5 -35 -6 -10 -9 -25 -16 -34 -16 -9 0 -17 -4 -17 -9 0
-6 27 -10 60 -10 32 0 63 -2 68 -5 4 -2 19 8 32 25 25 29 50 39 50 19 0 -7 6
-7 18 -2 9 5 22 7 29 5 7 -2 18 5 25 16 7 12 18 21 25 21 7 0 13 8 13 17 0 10
15 30 33 46 21 19 28 31 19 34 -9 3 -7 12 7 31 25 36 37 166 19 202 -19 36
-50 37 -79 2z"/>
<path d="M3210 13364 c0 -8 5 -12 10 -9 6 3 10 10 10 16 0 5 -4 9 -10 9 -5 0
-10 -7 -10 -16z"/>
<path d="M1256 13333 c8 -44 14 -55 14 -27 0 11 5 25 11 31 14 14 3 33 -17 33
-12 0 -13 -8 -8 -37z"/>
<path d="M860 13340 c0 -5 5 -10 10 -10 6 0 10 5 10 10 0 6 -4 10 -10 10 -5 0
-10 -4 -10 -10z"/>
<path d="M1286 13271 c-4 -7 -5 -15 -2 -18 9 -9 19 4 14 18 -4 11 -6 11 -12 0z"/>
<path d="M4807 13266 c-7 -18 1 -26 25 -26 11 0 18 7 18 20 0 23 -35 28 -43 6z"/>
<path d="M1787 13173 c-4 -3 -7 -11 -7 -17 0 -6 5 -5 12 2 6 6 9 14 7 17 -3 3
-9 2 -12 -2z"/>
<path d="M4740 13173 c0 -23 12 -43 26 -43 19 0 18 7 -6 32 -11 12 -20 17 -20
11z"/>
<path d="M1572 13130 c0 -14 2 -19 5 -12 2 6 2 18 0 25 -3 6 -5 1 -5 -13z"/>
<path d="M9944 12955 c0 -110 2 -156 3 -103 2 53 2 143 0 200 -1 57 -3 13 -3
-97z"/>
<path d="M1770 13122 c0 -12 -4 -22 -10 -22 -5 0 -10 -7 -10 -15 0 -8 4 -15 9
-15 11 0 26 59 17 67 -3 4 -6 -3 -6 -15z"/>
<path d="M4800 13109 c0 -5 5 -7 10 -4 6 3 10 8 10 11 0 2 -4 4 -10 4 -5 0
-10 -5 -10 -11z"/>
<path d="M6060 13091 c0 -6 9 -11 21 -11 11 0 29 -5 40 -11 11 -5 32 -9 47 -7
25 3 26 4 7 14 -30 17 -115 27 -115 15z"/>
<path d="M1529 13060 c-34 -30 -59 -38 -59 -20 0 19 -37 10 -66 -17 -46 -44
-59 -73 -59 -138 0 -45 -3 -59 -14 -57 -10 2 -12 -5 -7 -30 4 -18 8 -46 9 -63
3 -42 76 -103 115 -96 8 1 12 -5 10 -16 -5 -26 -92 -37 -133 -17 -30 15 -30
15 6 -22 33 -33 42 -37 87 -36 56 2 53 10 37 -103 -5 -35 -4 -46 4 -35 5 8 7
18 5 22 -3 4 0 8 5 8 6 0 11 10 11 23 0 13 6 35 13 50 9 21 19 27 44 27 17 0
39 3 48 6 15 6 6 -8 -63 -101 -4 -5 -13 -22 -19 -37 -21 -47 5 -34 78 40 123
124 147 134 174 78 9 -19 25 -42 35 -51 18 -17 20 -17 26 -1 4 10 2 22 -5 29
-19 19 -12 37 13 37 13 0 26 7 30 15 3 8 12 15 21 15 19 0 19 4 -1 46 -16 33
-15 69 1 107 7 16 4 17 -21 11 -36 -9 -141 -114 -127 -128 4 -3 -1 -6 -10 -6
-8 0 -18 -8 -21 -17 -4 -10 -24 -31 -46 -47 -22 -17 -40 -34 -40 -39 0 -4 -4
-5 -10 -2 -5 3 4 27 20 54 34 55 40 85 10 50 -10 -13 -20 -19 -20 -14 0 6 -19
11 -41 12 -75 2 -65 52 11 53 60 0 127 59 165 145 34 77 32 125 -6 125 -17 0
-23 12 -22 46 0 7 -17 22 -38 35 -26 17 -39 31 -39 47 0 13 -4 21 -9 18 -5 -4
-11 -2 -13 2 -1 5 -15 12 -29 15 -21 5 -34 0 -60 -23z"/>
<path d="M6218 13047 c12 -7 20 -16 17 -19 -4 -3 -1 -9 6 -14 8 -5 10 -3 4 6
-6 10 0 12 31 7 27 -4 34 -3 24 3 -8 5 -25 10 -38 10 -13 0 -20 4 -17 10 4 6
-6 10 -22 10 -28 -1 -28 -1 -5 -13z"/>
<path d="M1730 13025 c-7 -9 -11 -18 -8 -20 3 -3 11 1 18 10 7 9 11 18 8 20
-3 3 -11 -1 -18 -10z"/>
<path d="M1981 13003 c-9 -10 -16 -12 -24 -4 -18 18 -27 13 -27 -17 0 -15 9
-35 20 -45 19 -16 20 -16 20 13 0 17 4 30 9 30 8 0 24 30 19 35 -2 2 -9 -4
-17 -12z"/>
<path d="M6378 12993 c7 -3 16 -2 19 1 4 3 -2 6 -13 5 -11 0 -14 -3 -6 -6z"/>
<path d="M5216 12945 c-9 -21 -16 -41 -16 -45 0 -7 -66 -76 -94 -98 -17 -14
-14 -44 10 -91 7 -13 11 -28 8 -33 -3 -4 -1 -8 5 -8 5 0 12 8 14 18 4 16 5 16
6 0 1 -17 21 -26 21 -10 0 4 15 12 33 17 26 8 31 14 29 35 -3 19 -1 22 10 13
15 -13 42 -11 81 5 37 16 140 15 155 0 7 -7 12 -25 12 -41 0 -24 3 -28 20 -24
15 4 20 0 20 -16 0 -18 2 -19 10 -7 7 11 10 7 10 -17 0 -17 5 -33 12 -35 8 -3
8 -9 0 -24 -8 -14 -12 -15 -12 -4 0 13 -2 13 -9 1 -8 -12 -12 -12 -25 -2 -17
14 -22 36 -7 26 15 -9 31 26 18 40 -9 9 -14 9 -24 -1 -14 -14 -18 -88 -4 -80
4 3 18 -6 31 -19 18 -19 26 -22 37 -14 15 13 18 109 3 109 -5 0 -10 5 -10 10
0 7 7 7 21 0 11 -6 25 -9 32 -6 7 2 4 5 -5 5 -10 1 -18 8 -18 16 0 8 -9 15
-20 15 -11 0 -20 7 -20 15 0 8 -5 15 -11 15 -6 0 -17 6 -25 14 -12 13 -11 15
5 21 23 7 61 -14 61 -33 0 -7 10 -23 21 -35 12 -12 19 -16 15 -9 -5 8 3 12 28
12 41 0 56 16 24 25 -13 4 -33 17 -46 28 -12 11 -38 22 -57 23 -26 2 -43 12
-63 36 -64 77 -188 169 -245 183 -23 6 -28 2 -41 -30z m-1 -103 c-3 -3 -11 0
-18 7 -9 10 -8 11 6 5 10 -3 15 -9 12 -12z m50 -42 c3 -5 -1 -10 -9 -10 -9 0
-16 5 -16 10 0 6 4 10 9 10 6 0 13 -4 16 -10z"/>
<path d="M1856 12954 c-9 -24 -7 -28 9 -14 17 14 20 30 6 30 -5 0 -12 -7 -15
-16z"/>
<path d="M40 12911 c0 -9 30 -24 36 -18 2 1 -6 8 -16 15 -11 7 -20 8 -20 3z"/>
<path d="M6542 12899 c-7 -12 -11 -24 -8 -27 3 -3 6 -1 6 5 0 6 9 13 21 16 12
3 18 10 14 16 -9 16 -19 13 -33 -10z"/>
<path d="M110 12850 c0 -5 5 -10 11 -10 5 0 7 5 4 10 -3 6 -8 10 -11 10 -2 0
-4 -4 -4 -10z"/>
<path d="M930 12766 c0 -19 14 -28 34 -20 15 6 15 8 -1 20 -23 17 -33 17 -33
0z"/>
<path d="M2716 12735 c4 -8 10 -15 15 -15 5 0 9 7 9 15 0 8 -7 15 -15 15 -9 0
-12 -6 -9 -15z"/>
<path d="M458 12703 c6 -2 10 -9 6 -14 -3 -5 2 -9 10 -9 9 0 16 4 16 9 0 9
-25 22 -38 20 -4 0 -1 -3 6 -6z"/>
<path d="M1147 12703 c-13 -12 -7 -23 13 -23 13 0 18 5 14 15 -7 16 -17 19
-27 8z"/>
<path d="M1720 12699 c0 -5 5 -7 10 -4 6 3 10 8 10 11 0 2 -4 4 -10 4 -5 0
-10 -5 -10 -11z"/>
<path d="M2741 12684 c0 -11 3 -14 6 -6 3 7 2 16 -1 19 -3 4 -6 -2 -5 -13z"/>
<path d="M5715 12660 c2 -13 -2 -20 -11 -20 -8 0 -12 -5 -9 -11 4 -6 13 -8 21
-5 8 3 14 2 14 -2 0 -8 69 -42 84 -42 4 0 4 5 1 10 -7 11 6 13 29 4 9 -3 13
-10 10 -15 -3 -5 6 -9 19 -9 16 0 26 7 30 19 3 15 11 18 27 14 l22 -6 -23 -13
c-24 -13 -24 -13 -2 -14 12 0 25 5 29 11 3 6 19 9 35 7 20 -3 29 0 29 9 0 7
-3 12 -7 12 -20 -3 -34 2 -29 10 3 5 -11 11 -32 14 -166 21 -217 30 -220 38
-7 18 -21 9 -17 -11z m155 -39 c21 -6 22 -8 8 -14 -10 -3 -30 0 -45 8 -22 12
-24 15 -8 14 11 -1 31 -4 45 -8z"/>
<path d="M5650 12666 c0 -9 30 -14 35 -6 4 6 -3 10 -14 10 -12 0 -21 -2 -21
-4z"/>
<path d="M510 12656 c0 -2 7 -9 15 -16 9 -7 15 -8 15 -2 0 5 -7 12 -15 16 -8
3 -15 4 -15 2z"/>
<path d="M6020 12640 c0 -5 5 -10 10 -10 6 0 10 5 10 10 0 6 -4 10 -10 10 -5
0 -10 -4 -10 -10z"/>
<path d="M6072 12595 c-11 -24 -10 -25 18 -25 17 0 30 5 30 11 0 6 -9 8 -22 4
-18 -5 -20 -4 -8 4 11 7 12 13 4 21 -7 7 -14 3 -22 -15z"/>
<path d="M6045 12600 c3 -5 8 -10 11 -10 2 0 4 5 4 10 0 6 -5 10 -11 10 -5 0
-7 -4 -4 -10z"/>
<path d="M1035 12562 c-31 -41 -47 -82 -32 -82 11 0 40 52 37 66 -1 4 4 10 10
14 7 4 11 12 9 18 -2 6 -13 -2 -24 -16z"/>
<path d="M1096 12553 c-20 -21 -36 -41 -36 -45 0 -4 16 -25 35 -45 19 -20 35
-40 35 -43 0 -10 49 -30 74 -30 22 0 59 -28 69 -52 4 -10 8 -10 16 2 21 29 -5
200 -31 200 -5 0 -24 11 -42 25 -46 35 -77 32 -120 -12z"/>
<path d="M6200 12580 c0 -6 14 -24 30 -40 22 -21 40 -30 65 -30 18 0 36 -4 40
-9 3 -5 50 -13 105 -16 59 -5 97 -11 94 -17 -4 -5 6 -8 22 -6 17 2 28 8 27 16
-2 7 9 12 29 12 29 0 30 -1 14 -13 -16 -12 -17 -15 -3 -20 9 -3 18 0 21 9 3 8
18 14 33 14 l28 -1 -25 -14 -25 -14 33 -1 c20 0 31 4 27 10 -3 6 4 14 17 19
18 7 7 10 -50 16 -39 4 -75 11 -78 16 -3 5 -33 9 -68 9 -34 0 -67 5 -74 12 -6
6 -33 15 -59 19 -65 11 -153 27 -180 34 -13 3 -23 1 -23 -5z"/>
<path d="M5820 12566 c0 -2 7 -7 16 -10 8 -3 12 -2 9 4 -6 10 -25 14 -25 6z"/>
<path d="M5935 12490 c3 -5 11 -10 16 -10 6 0 7 5 4 10 -3 6 -11 10 -16 10 -6
0 -7 -4 -4 -10z"/>
<path d="M6758 12463 c6 -2 18 -2 25 0 6 3 1 5 -13 5 -14 0 -19 -2 -12 -5z"/>
<path d="M6800 12460 c0 -5 9 -10 21 -10 11 0 17 5 14 10 -3 6 -13 10 -21 10
-8 0 -14 -4 -14 -10z"/>
<path d="M6870 12450 c0 -5 12 -10 28 -10 21 0 24 2 12 10 -20 13 -40 13 -40
0z"/>
<path d="M6750 12442 c0 -14 52 -22 70 -11 11 6 9 8 -10 7 -14 0 -33 3 -42 7
-10 4 -18 3 -18 -3z"/>
<path d="M6945 12443 c6 -4 10 -17 10 -28 0 -22 29 -33 90 -33 30 -1 35 1 20
7 -11 5 -26 6 -34 3 -9 -3 -12 -1 -7 6 4 7 1 12 -8 12 -9 0 -16 5 -16 10 0 13
6 13 30 0 16 -8 18 -8 14 5 -4 9 -19 15 -39 15 -18 0 -42 3 -52 6 -10 3 -14 2
-8 -3z"/>
<path d="M720 12432 c0 -12 19 -26 26 -19 2 2 -2 10 -11 17 -9 8 -15 8 -15 2z"/>
<path d="M974 12414 c3 -9 6 -18 6 -20 0 -2 7 -4 15 -4 18 0 19 12 3 28 -17
17 -31 15 -24 -4z"/>
<path d="M4965 12420 c-3 -5 -2 -10 4 -10 11 0 61 -101 61 -124 0 -9 4 -16 10
-16 5 0 7 6 5 13 -8 23 19 45 48 40 15 -3 27 -9 27 -14 0 -5 12 -9 26 -9 21 0
10 12 -65 65 -92 66 -105 73 -116 55z"/>
<path d="M7065 12420 c-3 -5 1 -10 10 -10 9 0 13 5 10 10 -3 6 -8 10 -10 10
-2 0 -7 -4 -10 -10z"/>
<path d="M5870 12400 c0 -5 5 -10 11 -10 5 0 7 5 4 10 -3 6 -8 10 -11 10 -2 0
-4 -4 -4 -10z"/>
<path d="M7120 12400 c0 -5 9 -10 21 -10 11 0 17 5 14 10 -3 6 -13 10 -21 10
-8 0 -14 -4 -14 -10z"/>
<path d="M1046 12364 c-4 -11 1 -24 14 -36 20 -18 20 -18 17 13 -3 36 -21 49
-31 23z"/>
<path d="M1208 12314 c-3 -5 -8 -22 -12 -37 -6 -24 -9 -27 -21 -17 -8 7 -15
20 -15 29 0 13 -2 14 -9 2 -6 -9 -6 -22 0 -32 5 -10 9 -25 9 -34 0 -14 -6 -16
-27 -10 l-28 6 31 -33 c47 -52 55 -64 48 -82 -3 -9 -18 -16 -33 -16 -22 -1
-24 -2 -8 -11 9 -5 17 -15 17 -21 0 -6 -8 -17 -17 -24 -16 -12 -16 -15 -3 -24
25 -17 -27 -12 -65 6 -18 8 -46 14 -62 11 -26 -4 -26 -5 -7 -11 15 -5 20 -14
17 -26 -4 -13 1 -19 19 -22 33 -4 29 -30 -7 -41 -16 -5 -37 -16 -46 -23 -19
-17 -43 -19 -33 -3 4 7 -2 9 -17 7 -21 -3 -23 -7 -20 -48 1 -25 7 -53 13 -64
6 -12 7 -21 0 -25 -5 -3 -12 -16 -16 -28 -6 -18 -4 -22 8 -17 8 3 12 12 9 20
-3 8 1 14 11 14 9 0 16 -4 16 -10 0 -5 7 -10 16 -10 10 0 14 7 12 23 -3 19 1
22 27 20 16 -1 31 -7 33 -13 2 -5 8 -10 12 -10 5 0 1 13 -8 30 -9 16 -20 30
-24 30 -5 0 -8 10 -8 21 0 20 4 21 40 15 53 -8 104 25 95 62 -3 13 2 41 13 65
48 106 58 169 28 189 -7 5 -2 23 15 56 23 42 25 51 14 71 -7 13 -14 20 -17 15z"/>
<path d="M1928 12297 c-3 -14 -1 -32 3 -39 15 -23 10 -125 -6 -142 -14 -13
-13 -16 6 -26 11 -7 24 -9 27 -5 3 3 8 35 10 70 4 60 6 64 30 67 25 3 45 28
22 28 -12 0 -29 13 -64 48 l-23 24 -5 -25z"/>
<path d="M1000 12266 c8 -8 26 -17 40 -21 19 -5 21 -4 10 4 -8 6 -10 11 -5 12
14 1 -26 17 -45 18 -12 1 -12 -1 0 -13z"/>
<path d="M5530 12273 c-8 -3 -21 -10 -28 -16 -12 -10 -5 -17 46 -43 20 -10 28
5 14 27 -7 11 -10 24 -7 29 7 11 -1 12 -25 3z"/>
<path d="M8084 12218 c15 -21 26 -52 29 -83 7 -63 29 -168 37 -175 3 -3 11
-27 17 -55 6 -27 17 -68 23 -90 6 -22 14 -53 17 -70 3 -16 9 -35 14 -41 5 -6
12 -32 15 -58 6 -43 9 -46 35 -46 34 0 37 21 14 85 -8 22 -14 55 -15 73 0 17
-4 32 -9 32 -5 0 -11 19 -15 43 -4 23 -11 56 -16 72 -5 17 -16 57 -25 90 -9
33 -20 69 -25 80 -5 11 -11 41 -15 68 -3 26 -10 47 -16 47 -5 0 -9 11 -9 24 0
24 -21 36 -63 36 -16 0 -15 -4 7 -32z m181 -530 c6 -4 2 -8 -7 -8 -10 0 -18 7
-18 17 0 9 3 12 8 7 4 -5 12 -12 17 -16z"/>
<path d="M5932 12208 c2 -6 10 -14 16 -16 7 -2 10 2 6 12 -7 18 -28 22 -22 4z"/>
<path d="M6550 12080 c0 -5 5 -10 11 -10 5 0 7 5 4 10 -3 6 -8 10 -11 10 -2 0
-4 -4 -4 -10z"/>
<path d="M470 12046 c0 -9 5 -16 10 -16 6 0 10 4 10 9 0 6 -4 13 -10 16 -5 3
-10 -1 -10 -9z"/>
<path d="M968 12053 c7 -3 16 -2 19 1 4 3 -2 6 -13 5 -11 0 -14 -3 -6 -6z"/>
<path d="M1590 12045 c0 -8 5 -15 10 -15 6 0 10 7 10 15 0 8 -4 15 -10 15 -5
0 -10 -7 -10 -15z"/>
<path d="M910 12035 c-32 -11 -33 -12 -11 -18 15 -3 29 0 38 9 21 21 14 23
-27 9z"/>
<path d="M2846 12028 c-9 -12 -16 -26 -16 -29 0 -14 -110 -171 -133 -190 -16
-14 -36 -18 -75 -17 -30 2 -56 -3 -60 -9 -4 -6 -28 -20 -54 -32 -26 -12 -52
-30 -58 -40 -11 -21 -131 -47 -175 -38 -14 2 -26 -1 -28 -6 -2 -6 -6 -3 -10 6
-4 11 -1 17 8 17 8 0 15 9 15 20 0 11 -4 20 -10 20 -5 0 -10 14 -10 30 0 21
-5 30 -16 30 -13 0 -13 2 -2 13 24 24 47 27 57 9 6 -9 11 -14 11 -10 0 14 -42
78 -53 79 -7 1 -28 3 -47 5 -19 2 -51 6 -72 9 -30 6 -38 4 -47 -13 -10 -18 -8
-20 21 -18 23 1 33 -4 36 -17 4 -19 -26 -36 -37 -19 -8 14 -63 10 -80 -6 -14
-13 -51 -7 -63 11 -4 6 -9 -2 -13 -19 -3 -16 -14 -45 -24 -64 -18 -32 -23 -35
-67 -36 l-49 -1 3 -37 c3 -31 -2 -44 -24 -67 -15 -16 -34 -29 -42 -29 -8 0 4
-14 26 -30 37 -26 42 -35 42 -69 0 -21 3 -51 6 -67 7 -38 -25 -79 -55 -69 -11
3 -29 2 -39 -4 -13 -7 -22 -7 -30 1 -8 8 -15 8 -27 -2 -22 -18 -19 -26 16 -40
22 -10 29 -18 26 -32 -3 -10 -1 -15 4 -12 11 6 39 -20 39 -37 0 -6 7 -17 15
-23 9 -6 18 -36 21 -71 4 -33 11 -61 15 -63 5 -2 9 -20 9 -40 0 -31 -2 -34
-12 -19 -8 10 -18 13 -25 9 -10 -7 -10 -12 0 -27 13 -17 15 -17 35 3 l21 21 4
-22 c2 -12 5 -3 6 21 0 23 6 42 11 42 6 0 10 12 10 27 0 21 3 24 12 15 9 -9
10 -17 2 -30 -16 -26 -6 -43 22 -36 20 5 24 2 24 -17 0 -12 3 -19 7 -16 3 4
12 2 20 -4 10 -9 13 -6 13 15 0 17 -5 26 -16 26 -9 0 -22 8 -29 17 -10 13 -9
24 6 57 17 39 17 65 -1 37 -6 -11 -13 -6 -29 20 -27 44 -26 64 4 95 14 14 25
29 25 34 0 10 15 14 34 11 5 -1 23 4 40 11 17 7 40 12 51 13 15 0 19 6 17 22
-2 12 2 24 8 28 17 10 2 24 -20 18 -15 -4 -20 0 -20 15 0 18 -24 37 -42 34 -5
-1 -8 4 -8 11 0 8 -4 7 -10 -3 -8 -12 -11 -13 -19 -1 -5 7 -17 11 -28 7 -10
-3 -26 0 -35 6 -20 16 -33 58 -19 58 7 0 8 16 5 43 -6 39 -4 44 20 55 15 7 33
12 40 12 8 0 16 6 19 14 8 21 47 28 47 7 0 -27 59 -52 113 -48 34 3 54 0 68
-12 21 -17 21 -17 -8 -31 -37 -19 -63 -45 -63 -64 0 -23 -41 -48 -57 -34 -19
16 -27 4 -13 -21 10 -20 12 -20 27 -6 11 12 19 13 26 6 16 -16 27 -13 27 8 0
12 15 27 41 40 l40 21 26 -20 c18 -14 41 -20 74 -20 37 0 54 -6 73 -24 15 -13
26 -28 26 -34 0 -6 7 -15 16 -20 12 -7 17 -25 18 -68 2 -38 10 -74 24 -101 12
-23 22 -47 22 -52 0 -16 -47 -81 -76 -106 -15 -13 -28 -35 -30 -49 -2 -23 0
-24 22 -16 19 7 34 5 62 -10 20 -11 44 -20 52 -20 8 0 33 -16 54 -35 41 -36
64 -42 96 -25 14 7 25 7 38 -1 16 -10 24 -8 48 14 22 21 39 27 74 27 25 0 54
7 64 15 11 8 28 15 38 15 10 0 18 5 18 10 0 6 5 10 10 10 20 0 49 39 56 75 3
19 10 38 15 41 5 3 9 14 9 25 0 10 5 19 10 19 6 0 10 7 10 15 0 9 7 30 17 48
16 31 16 32 26 9 6 -13 19 -22 32 -22 30 0 70 86 67 145 -2 54 15 68 24 20 9
-47 24 -44 24 5 0 23 5 40 11 40 25 0 -23 129 -63 174 -10 11 -18 23 -18 27 0
12 35 20 54 13 19 -7 86 22 87 39 3 28 -4 54 -23 86 l-20 35 32 27 c29 26 33
49 9 49 -10 0 -70 42 -97 68 -7 6 -19 12 -25 12 -7 0 -27 14 -45 30 -18 17
-41 30 -51 30 -9 0 -22 5 -29 12 -8 8 -40 12 -87 11 -41 -1 -77 3 -80 8 -10
15 -23 10 -39 -13z m344 -173 c10 -12 10 -15 -1 -16 -27 -2 -44 3 -59 17 -12
12 -10 14 17 14 17 0 36 -7 43 -15z m-1170 -79 c0 -11 -55 -46 -73 -46 -3 0 1
14 9 30 11 21 23 30 40 30 14 0 24 -6 24 -14z m194 -115 c9 -13 -19 -32 -37
-25 -13 5 -14 9 -4 20 14 15 33 18 41 5z m1026 -1 c0 -5 -10 -10 -22 -10 -19
0 -20 2 -8 10 19 13 30 13 30 0z m-1072 -140 c-7 -11 -19 -20 -27 -20 -11 0
-10 5 5 19 25 26 37 26 22 1z m-354 -425 c3 -8 1 -15 -4 -15 -6 0 -10 7 -10
15 0 8 2 15 4 15 2 0 6 -7 10 -15z m781 -96 c-11 -17 -35 4 -35 30 l1 26 19
-24 c11 -12 18 -27 15 -32z m47 -24 c4 -21 3 -23 -14 -14 -15 8 -16 12 -6 24
7 8 14 14 14 15 1 0 4 -11 6 -25z"/>
<path d="M1488 12003 c7 -3 16 -2 19 1 4 3 -2 6 -13 5 -11 0 -14 -3 -6 -6z"/>
<path d="M1515 11990 c-3 -5 1 -10 9 -10 9 0 16 5 16 10 0 6 -4 10 -9 10 -6 0
-13 -4 -16 -10z"/>
<path d="M836 11958 c-7 -34 -3 -44 13 -33 13 8 15 52 2 59 -5 3 -11 -8 -15
-26z"/>
<path d="M7368 11983 c7 -3 16 -2 19 1 4 3 -2 6 -13 5 -11 0 -14 -3 -6 -6z"/>
<path d="M488 11973 c6 -2 18 -2 25 0 6 3 1 5 -13 5 -14 0 -19 -2 -12 -5z"/>
<path d="M2029 11903 c-6 -15 -16 -31 -22 -36 -8 -6 -5 -7 6 -3 10 3 23 6 28
6 5 0 9 7 9 15 0 8 5 15 10 15 16 0 12 17 -5 24 -11 4 -19 -3 -26 -21z"/>
<path d="M3380 11922 c-8 -3 -21 -11 -28 -19 -11 -11 -11 -13 0 -13 8 -1 6 -6
-6 -15 -23 -18 -14 -20 16 -4 17 9 18 13 7 21 -10 7 -4 8 19 4 17 -3 32 -2 32
3 0 15 -24 29 -40 23z"/>
<path d="M7 11893 c7 -2 19 -2 26 0 6 3 1 5 -13 5 -14 0 -19 -2 -13 -5z"/>
<path d="M865 11884 c-12 -12 -13 -20 -5 -28 8 -8 13 -7 19 3 7 11 9 11 13 0
8 -22 18 -5 11 19 -6 26 -16 28 -38 6z"/>
<path d="M1060 11825 c-12 -14 -12 -18 1 -25 10 -7 15 -5 17 5 6 28 -3 38 -18
20z"/>
<path d="M1130 11830 c0 -5 5 -10 10 -10 16 0 12 -30 -5 -36 -8 -4 -15 -10
-15 -15 0 -5 7 -9 15 -9 19 0 19 -2 -6 -44 -11 -19 -18 -40 -14 -46 10 -16 45
-12 45 5 0 10 7 15 18 13 9 -2 16 2 15 8 -4 21 60 8 68 -13 4 -11 19 -29 33
-41 14 -11 26 -25 26 -31 0 -28 -91 -42 -144 -21 -23 9 -26 7 -26 -15 0 -14 7
-25 18 -28 9 -2 -2 -2 -25 0 -44 4 -60 -10 -24 -22 17 -5 18 -10 7 -44 -20
-68 -44 -91 -96 -91 -39 0 -50 5 -73 32 -16 17 -32 39 -38 50 -5 10 -16 18
-24 18 -8 0 -22 11 -31 25 -22 33 -84 32 -84 -1 0 -8 -10 -14 -25 -14 -14 0
-25 5 -25 11 0 6 -7 4 -15 -5 -8 -8 -15 -26 -15 -40 0 -14 -5 -26 -10 -26 -13
0 -57 28 -84 52 -26 23 -13 35 19 18 18 -10 29 -10 36 -3 7 7 -3 17 -33 32
-25 11 -49 21 -54 21 -18 0 -64 -48 -64 -68 0 -11 -7 -22 -15 -26 -11 -4 -15
-21 -15 -63 l0 -57 -35 37 c-19 20 -35 41 -35 46 0 13 -59 55 -95 68 -42 14
-190 3 -260 -21 l-51 -17 1 -349 0 -350 50 -2 c28 -1 62 -1 78 0 31 2 34 -5
10 -24 -17 -13 -15 -16 17 -44 19 -17 40 -30 47 -30 7 0 13 -7 13 -15 0 -21
-16 -19 -32 3 -16 23 -121 73 -156 75 l-27 2 -1 -92 c0 -73 3 -93 14 -98 9 -3
20 -1 26 5 5 5 19 10 29 10 11 0 28 10 38 22 11 11 19 16 19 10 0 -6 13 -13
30 -17 29 -6 38 -19 21 -29 -4 -3 -6 -17 -3 -31 3 -18 11 -25 28 -25 24 0 33
-23 14 -35 -15 -10 -12 -35 5 -35 8 0 15 7 15 15 0 11 9 15 30 13 17 -1 29 -5
27 -8 -2 -3 -9 -20 -16 -37 -13 -32 -36 -44 -43 -22 -6 18 -74 22 -91 5 -9 -9
-26 -16 -38 -16 -21 0 -19 5 23 48 40 41 45 50 35 67 -22 37 -49 55 -76 51
-14 -2 -41 -5 -59 -5 -29 -1 -32 -3 -22 -20 6 -12 23 -21 43 -23 27 -3 29 -5
12 -12 -44 -17 -50 -25 -57 -72 -10 -75 -7 -357 4 -372 6 -6 11 -30 12 -52 1
-39 9 -50 21 -30 10 15 23 12 28 -7 3 -11 5 -6 6 10 1 21 -5 30 -19 34 -11 3
-20 9 -20 14 0 5 6 6 14 3 9 -3 16 2 18 14 3 19 5 19 33 6 l30 -14 -28 5 c-15
3 -27 1 -27 -4 0 -19 21 -23 51 -10 18 7 26 15 19 19 -6 4 7 12 28 18 22 7 45
19 52 27 7 8 19 15 26 15 8 0 14 3 14 8 0 4 23 31 50 60 42 46 50 61 55 107 6
41 4 58 -8 69 -9 9 -18 11 -24 5 -5 -5 -27 -10 -48 -12 -31 -1 -40 2 -43 16
-3 13 3 17 22 17 16 0 30 8 37 22 17 31 35 48 51 48 7 -1 3 -9 -10 -20 l-23
-19 20 -23 c16 -16 24 -19 32 -11 14 14 39 6 33 -11 -6 -16 22 -53 33 -43 4 5
8 23 9 40 3 83 5 97 15 97 15 0 9 -130 -8 -157 -7 -12 -13 -31 -13 -42 0 -33
40 -100 76 -128 19 -14 37 -36 40 -49 4 -15 12 -21 24 -19 19 4 30 -28 30 -87
0 -16 9 -38 20 -50 l20 -22 27 25 c15 13 34 32 41 42 16 21 29 22 48 2 8 -8
23 -20 32 -27 9 -8 22 -22 28 -33 14 -26 74 -32 107 -10 15 10 41 15 68 13 42
-3 44 -2 67 42 20 37 24 58 22 120 -3 106 -3 105 6 213 4 65 11 97 19 97 21 0
75 -22 75 -30 0 -4 12 -11 27 -15 15 -3 31 -11 34 -17 18 -28 164 0 191 37 24
33 -15 115 -62 130 -24 7 -15 35 11 35 11 0 28 17 45 45 28 48 27 80 -1 109
-9 9 -19 34 -23 56 l-7 40 -30 -16 c-19 -10 -41 -13 -60 -9 -16 4 -52 6 -78 5
-58 -1 -110 16 -126 42 -7 11 -15 41 -18 68 -5 46 -7 48 -41 54 -44 7 -87 52
-96 101 -6 30 -3 44 18 75 25 37 25 40 11 81 -20 57 -2 109 39 109 9 0 16 11
18 27 4 37 59 73 109 73 34 0 39 3 39 23 0 25 28 57 49 57 19 0 56 51 53 72
-2 10 4 28 12 40 9 12 16 18 17 13 1 -6 5 1 9 15 5 16 7 3 4 -37 -3 -57 -2
-63 16 -63 23 0 35 16 18 23 -7 3 4 5 24 4 40 -2 49 -11 22 -21 -14 -5 -14 -7
0 -22 14 -14 18 -14 31 0 8 8 15 18 15 23 0 10 72 33 105 33 18 0 23 4 18 16
-3 8 4 25 17 39 l23 25 -24 21 c-19 17 -32 19 -64 14 -22 -3 -44 -10 -49 -16
-6 -5 -23 -9 -38 -9 -15 0 -28 -4 -28 -10 0 -5 -7 -7 -15 -4 -8 4 -15 12 -15
20 0 8 -8 14 -18 14 -30 0 -62 42 -62 81 0 33 -1 34 -43 36 -23 2 -54 12 -69
23 -15 11 -33 20 -40 20 -9 0 -9 3 2 10 10 6 11 10 3 10 -7 0 -13 9 -13 20 0
11 -7 20 -15 20 -8 0 -15 -4 -15 -10z m147 -286 c-3 -3 -12 -4 -19 -1 -8 3 -5
6 6 6 11 1 17 -2 13 -5z m-142 -124 c3 -5 1 -10 -4 -10 -6 0 -11 5 -11 10 0 6
2 10 4 10 3 0 8 -4 11 -10z m-827 -84 c34 -17 85 -74 77 -85 -6 -11 -45 -2
-45 10 0 5 -6 9 -13 9 -8 0 -30 14 -51 32 -27 23 -33 33 -24 39 18 12 25 11
56 -5z m-61 -243 c-8 -7 -106 -43 -119 -43 -4 0 -8 4 -8 9 0 12 47 29 90 34
19 2 37 5 39 5 2 1 1 -1 -2 -5z m270 -356 c-20 -18 -37 -35 -37 -40 0 -10 -51
-67 -61 -67 -4 0 -6 8 -5 18 0 9 -5 16 -11 15 -7 -2 -13 0 -13 3 0 9 44 43 57
44 6 0 13 3 15 8 4 10 71 52 83 51 6 0 -7 -14 -28 -32z m599 -102 c44 -44 64
-69 57 -76 -6 -6 -14 -5 -23 6 -7 8 -18 15 -26 15 -20 0 -94 79 -94 101 0 31
15 23 86 -46z m-810 30 c19 -10 23 -15 12 -15 -10 0 -20 -10 -24 -24 -6 -26
-29 -40 -45 -30 -6 3 -1 14 11 24 l21 18 -21 7 c-17 5 -19 10 -9 21 14 18 20
18 55 -1z m124 -62 c0 -9 5 -31 12 -49 17 -48 1 -107 -29 -109 -13 -1 -23 1
-23 5 0 4 -7 7 -15 7 -8 0 -15 -5 -15 -11 0 -18 -18 8 -20 29 -4 37 0 43 30
50 28 6 30 10 30 51 0 32 4 44 15 44 8 0 15 -8 15 -17z m-143 -59 c-3 -3 -12
-4 -19 -1 -8 3 -5 6 6 6 11 1 17 -2 13 -5z m623 -269 c0 -8 -4 -15 -10 -15 -5
0 -7 7 -4 15 4 8 8 15 10 15 2 0 4 -7 4 -15z m-220 -52 c0 -9 -10 -27 -22 -40
-24 -26 -68 -31 -68 -8 0 8 4 15 8 15 5 0 15 11 22 25 16 29 60 35 60 8z"/>
<path d="M1080 11750 c0 -5 5 -10 10 -10 6 0 10 5 10 10 0 6 -4 10 -10 10 -5
0 -10 -4 -10 -10z"/>
<path d="M9944 11410 c0 -146 2 -205 3 -132 2 72 2 192 0 265 -1 72 -3 13 -3
-133z"/>
<path d="M1130 11626 c0 -9 5 -16 10 -16 6 0 10 4 10 9 0 6 -4 13 -10 16 -5 3
-10 -1 -10 -9z"/>
<path d="M8283 11555 c-18 -20 -17 -49 2 -41 16 6 39 -26 27 -39 -4 -5 -1 -5
6 -1 13 8 15 37 6 74 -7 25 -23 28 -41 7z"/>
<path d="M688 11513 c7 -3 16 -2 19 1 4 3 -2 6 -13 5 -11 0 -14 -3 -6 -6z"/>
<path d="M8291 11484 c0 -11 3 -14 6 -6 3 7 2 16 -1 19 -3 4 -6 -2 -5 -13z"/>
<path d="M8300 11446 c0 -9 5 -16 10 -16 6 0 10 4 10 9 0 6 -4 13 -10 16 -5 3
-10 -1 -10 -9z"/>
<path d="M1494 11404 c9 -8 16 -24 16 -34 0 -10 5 -22 11 -25 5 -4 9 -21 7
-38 -3 -31 -2 -32 41 -35 l43 -3 -25 23 c-27 26 -23 54 6 42 25 -9 20 7 -8 35
-14 13 -25 29 -25 37 0 10 -13 14 -41 14 -37 0 -39 -1 -25 -16z"/>
<path d="M8366 11315 c-5 -14 -9 -15 -21 -5 -18 15 -18 10 1 -65 9 -33 20 -82
26 -110 6 -27 15 -53 20 -56 6 -3 9 -10 8 -15 -4 -24 13 -105 22 -102 5 2 17
15 26 30 13 22 14 33 4 65 -6 21 -19 65 -28 98 -9 33 -21 70 -26 82 -6 11 -8
25 -6 30 3 4 0 21 -7 37 -10 23 -13 25 -19 11z"/>
<path d="M1640 11259 c0 -5 5 -7 10 -4 6 3 10 8 10 11 0 2 -4 4 -10 4 -5 0
-10 -5 -10 -11z"/>
<path d="M2210 11180 c0 -5 5 -10 10 -10 6 0 10 5 10 10 0 6 -4 10 -10 10 -5
0 -10 -4 -10 -10z"/>
<path d="M9941 11124 c0 -11 3 -14 6 -6 3 7 2 16 -1 19 -3 4 -6 -2 -5 -13z"/>
<path d="M9943 11025 c0 -38 2 -53 4 -32 2 20 2 52 0 70 -2 17 -4 1 -4 -38z"/>
<path d="M8446 10947 c-26 -19 -15 -82 17 -92 l22 -7 -24 -7 c-24 -6 -23 -7
23 -55 26 -26 50 -45 54 -41 4 3 2 9 -4 13 -7 4 -14 23 -17 42 -8 49 -35 142
-45 152 -4 4 -16 2 -26 -5z"/>
<path d="M1986 10923 c6 -24 44 -73 57 -73 3 0 7 7 11 15 5 13 -11 33 -59 73
-14 12 -15 10 -9 -15z"/>
<path d="M9944 10630 c0 -179 2 -252 3 -162 2 89 2 235 0 325 -1 89 -3 16 -3
-163z"/>
<path d="M8462 10753 c2 -5 10 -21 18 -38 8 -16 21 -36 28 -44 8 -9 10 -17 4
-23 -20 -20 20 -137 64 -191 13 -16 24 -38 24 -50 0 -20 -2 -19 -21 8 l-21 30
7 -30 c4 -16 9 -37 10 -45 5 -38 51 -201 66 -238 5 -14 14 -20 21 -16 7 4 8 3
4 -4 -4 -6 2 -17 14 -24 23 -15 27 -33 5 -24 -18 7 -21 -44 -5 -91 9 -24 15
-29 35 -25 21 4 23 8 18 36 -3 17 -9 36 -14 41 -4 6 -8 20 -7 30 2 29 -32 139
-45 148 -9 6 -9 10 1 14 9 3 4 20 -19 59 -17 30 -27 54 -24 54 4 0 0 11 -9 25
-15 23 -15 25 0 25 9 0 14 6 11 13 -2 6 -12 46 -22 87 -10 41 -22 80 -27 86
-4 6 -10 25 -12 43 -2 17 -6 35 -10 38 -3 3 -1 12 4 18 13 16 1 48 -16 41 -8
-3 -11 0 -8 9 4 9 -3 16 -20 21 -14 3 -26 10 -26 15 0 5 -7 9 -16 9 -9 0 -14
-3 -12 -7z"/>
<path d="M7470 10700 c0 -5 5 -10 10 -10 6 0 10 5 10 10 0 6 -4 10 -10 10 -5
0 -10 -4 -10 -10z"/>
<path d="M8605 10660 c-3 -6 4 -9 19 -8 13 1 22 6 20 10 -7 11 -32 10 -39 -2z"/>
<path d="M8710 10585 c0 -15 66 -65 87 -65 7 0 13 -4 13 -9 0 -10 74 -51 91
-51 6 0 7 4 4 10 -4 6 1 7 12 3 10 -3 16 -3 13 0 -9 10 -80 57 -87 57 -3 0
-13 8 -22 18 -9 9 -25 18 -36 20 -11 2 -30 10 -42 18 -28 18 -33 18 -33 -1z"/>
<path d="M8920 10455 c0 -2 11 -15 25 -29 14 -14 25 -23 25 -20 0 3 13 -4 29
-15 35 -25 37 -25 45 -5 3 8 2 12 -4 9 -6 -3 -13 1 -16 9 -3 9 -10 16 -16 16
-5 0 -16 7 -25 15 -8 8 -19 13 -24 10 -5 -4 -9 -1 -9 4 0 6 -7 11 -15 11 -8 0
-15 -2 -15 -5z"/>
<path d="M9051 10353 c1 -22 2 -23 6 -8 3 11 10 23 17 27 7 5 5 8 -6 8 -13 0
-18 -7 -17 -27z"/>
<path d="M9093 10345 c-10 -10 -9 -14 3 -19 20 -8 51 8 35 18 -6 4 -11 4 -11
-1 0 -4 -4 -3 -8 3 -5 9 -10 8 -19 -1z"/>
<path d="M9143 10319 c-16 -16 9 -42 31 -33 10 4 16 1 16 -9 0 -22 17 -30 17
-9 0 23 -17 44 -33 38 -7 -3 -14 2 -16 10 -2 12 -6 12 -15 3z"/>
<path d="M9944 10160 c0 -74 1 -105 3 -67 2 37 2 97 0 135 -2 37 -3 6 -3 -68z"/>
<path d="M9223 10258 c2 -7 10 -12 17 -10 8 2 10 -3 7 -13 -4 -9 -1 -15 7 -15
8 0 16 -4 18 -9 2 -4 14 -11 28 -15 14 -3 19 -3 12 0 -6 3 -10 10 -7 14 3 5
-5 14 -17 21 -12 7 -29 18 -36 26 -17 16 -35 17 -29 1z"/>
<path d="M9330 10195 c0 -3 12 -18 27 -33 15 -15 21 -19 14 -9 -8 9 -10 17 -6
17 4 0 2 7 -5 15 -12 15 -30 20 -30 10z"/>
<path d="M9437 10119 c7 -7 15 -10 18 -7 3 3 -2 9 -12 12 -14 6 -15 5 -6 -5z"/>
<path d="M400 10095 c0 -8 9 -15 20 -15 13 0 18 5 14 15 -4 8 -12 15 -20 15
-8 0 -14 -7 -14 -15z"/>
<path d="M9478 10093 c7 -3 16 -2 19 1 4 3 -2 6 -13 5 -11 0 -14 -3 -6 -6z"/>
<path d="M9515 10068 c11 -6 33 -22 49 -37 16 -15 27 -20 24 -11 -5 17 -65 60
-82 60 -6 0 -2 -6 9 -12z"/>
<path d="M236 9983 c-6 -14 -5 -15 5 -6 7 7 10 15 7 18 -3 3 -9 -2 -12 -12z"/>
<path d="M206 9941 c-17 -19 -17 -19 2 -14 30 7 36 -14 12 -39 -21 -22 -90
-160 -90 -179 0 -5 -11 -26 -24 -47 -12 -20 -27 -48 -31 -62 -4 -14 -19 -42
-31 -62 -13 -21 -24 -42 -24 -47 0 -5 -5 -11 -12 -13 -12 -4 -3 -28 10 -28 7
0 27 36 73 133 13 27 27 51 31 53 12 8 9 -36 -7 -96 -8 -30 -15 -82 -15 -116
0 -33 -3 -64 -6 -67 -4 -3 -18 3 -32 13 -34 27 -49 25 -54 -8 -4 -27 11 -52
31 -52 14 0 19 -23 9 -42 -6 -13 -5 -18 6 -18 8 0 18 5 21 10 14 23 25 7 27
-37 1 -48 1 -48 7 11 6 58 23 84 34 49 2 -10 8 -26 12 -36 5 -12 3 -17 -6 -15
-9 2 -15 -11 -19 -39 -3 -23 -12 -49 -20 -58 -7 -9 -9 -15 -4 -14 5 0 19 -2
32 -6 32 -11 38 -48 14 -89 -18 -30 -19 -37 -7 -53 13 -17 14 -17 15 0 0 20
20 23 38 5 16 -16 16 -70 0 -86 -14 -14 -74 -16 -82 -3 -7 10 -96 13 -97 3 -6
-53 -10 -228 -10 -489 0 -172 3 -203 15 -203 8 0 18 10 21 23 4 12 18 36 30
53 13 17 28 46 33 65 5 19 14 33 21 32 6 -2 11 11 11 32 0 19 4 43 10 53 19
34 40 114 40 152 0 21 5 51 10 65 6 15 11 50 12 78 2 53 22 117 37 117 4 0 13
-11 19 -25 6 -14 18 -25 27 -25 8 0 15 -4 15 -9 0 -5 12 -12 26 -15 38 -10 54
-30 54 -68 0 -37 27 -120 59 -182 14 -27 17 -42 10 -47 -6 -3 -9 -17 -7 -30 3
-21 7 -24 43 -21 39 3 45 -1 139 -93 54 -52 102 -95 105 -95 4 0 23 -13 41
-30 51 -46 65 -38 33 18 -9 16 -34 40 -55 53 -21 13 -38 29 -38 36 0 6 -10 19
-21 27 -16 11 -20 21 -15 40 3 14 2 26 -3 26 -5 0 -11 18 -13 40 -2 22 0 40 4
40 5 0 8 6 8 14 0 8 7 17 16 20 24 9 54 7 54 -4 0 -17 72 -90 104 -107 29 -15
28 -13 -14 34 -92 103 -230 275 -230 288 0 4 8 5 18 4 25 -3 68 17 75 35 6 15
-6 29 -36 39 -12 5 -17 15 -15 29 2 19 9 23 36 23 17 0 32 5 32 11 0 14 172 5
182 -10 4 -6 10 -7 15 -3 9 10 -16 27 -39 27 -10 0 -18 5 -18 10 0 6 -9 10
-20 10 -22 0 -102 30 -110 40 -3 4 -16 11 -30 15 -14 4 -43 20 -65 36 -22 15
-66 33 -97 40 -32 7 -58 16 -58 21 0 4 -6 8 -13 8 -23 0 -57 36 -57 59 0 11
-4 21 -10 21 -5 0 -10 7 -10 15 0 8 5 15 11 15 5 0 7 -4 4 -10 -10 -17 29 -10
51 8 12 10 23 34 26 53 7 49 11 63 25 74 8 7 9 15 3 25 -8 12 -10 12 -16 -3
-3 -9 -12 -17 -20 -17 -17 0 -17 -5 -4 -31 9 -16 7 -19 -12 -18 -13 0 -17 3
-10 6 6 2 12 9 12 15 0 19 -38 -22 -56 -60 -16 -35 -17 -36 -26 -13 -7 19 -11
21 -23 11 -12 -10 -15 -9 -15 4 0 9 7 16 15 16 8 0 15 4 15 9 0 20 62 71 86
71 14 0 22 4 19 10 -3 6 -1 10 4 10 13 0 14 20 2 39 -7 10 -13 11 -31 1 -18
-10 -24 -9 -36 7 -11 13 -17 14 -20 6 -3 -7 -15 -13 -27 -13 -16 0 -18 -3 -9
-9 11 -6 10 -15 -4 -44 -23 -48 -38 -47 -30 1 l6 37 -15 -35 c-10 -22 -12 -36
-5 -38 5 -2 10 -12 10 -22 0 -16 -3 -17 -30 -7 -16 6 -30 15 -30 19 0 4 -4 8
-10 8 -5 0 -10 -7 -10 -15 0 -8 -10 -25 -22 -37 l-21 -21 6 37 c5 31 3 37 -9
32 -11 -4 -14 -1 -12 12 2 10 12 17 25 17 11 0 29 7 39 15 11 9 31 22 46 29
l27 14 -22 19 c-21 19 -22 19 -38 -1 -28 -34 -103 -53 -84 -20 4 5 2 9 -4 9
-6 0 -10 40 -10 99 -1 115 15 161 55 161 13 0 24 -5 24 -10 0 -7 6 -7 20 0 33
18 23 29 -25 26 -45 -2 -45 -2 -45 30 0 18 5 36 10 39 6 3 10 15 10 25 0 10 9
35 21 54 18 31 24 35 52 29 18 -3 42 -17 53 -32 20 -23 24 -24 49 -13 27 12
27 12 20 -15 -5 -15 -9 -55 -10 -88 -1 -58 -2 -60 -30 -65 -25 -4 -26 -6 -12
-19 19 -15 14 -28 -17 -42 -16 -7 -12 -8 18 -5 22 3 44 12 48 21 11 18 58 20
58 3 0 -21 49 -76 50 -57 0 9 7 30 15 45 8 16 15 36 15 45 0 8 5 20 10 25 8 8
7 19 -1 38 -9 19 -9 32 -1 49 17 36 24 77 17 109 -6 26 -10 29 -32 23 -31 -7
-54 -29 -51 -46 5 -22 -30 -22 -37 1 -4 14 -14 20 -33 19 -27 0 -41 2 -77 15
-54 20 -65 27 -65 40 0 7 -10 16 -21 19 -15 4 -20 11 -16 21 9 22 -6 20 -27
-3z m274 -195 c0 -14 5 -28 10 -31 13 -8 3 -25 -15 -25 -15 0 -34 48 -28 68 8
22 33 13 33 -12z m-343 -393 c-3 -10 -5 -4 -5 12 0 17 2 24 5 18 2 -7 2 -21 0
-30z m290 11 c-3 -3 -12 -4 -19 -1 -8 3 -5 6 6 6 11 1 17 -2 13 -5z m-187
-145 c0 -6 -4 -7 -10 -4 -5 3 -10 11 -10 16 0 6 5 7 10 4 6 -3 10 -11 10 -16z
m110 -34 c0 -18 -4 -23 -15 -19 -25 10 -19 33 13 43 1 1 2 -10 2 -24z m-40 0
c0 -8 -7 -15 -15 -15 -16 0 -20 12 -8 23 11 12 23 8 23 -8z m-100 -45 c0 -11
-7 -20 -15 -20 -13 0 -14 4 -5 20 6 11 13 20 15 20 3 0 5 -9 5 -20z m167 -208
c-23 -4 -24 -4 -33 33 l-7 29 29 -29 c25 -26 27 -30 11 -33z m-313 -267 c-12
-18 -19 -23 -25 -14 -10 16 0 39 17 39 8 0 14 6 15 13 0 9 2 9 5 0 3 -6 -2
-24 -12 -38z m101 -15 c3 -6 -1 -7 -9 -4 -18 7 -21 14 -7 14 6 0 13 -4 16 -10z"/>
<path d="M8706 9907 c-3 -14 1 -37 9 -53 8 -16 15 -34 15 -40 0 -18 24 -34 38
-25 10 6 9 21 -1 72 -10 52 -17 65 -34 67 -15 2 -22 -4 -27 -21z m39 -47 c3
-5 1 -10 -4 -10 -6 0 -11 5 -11 10 0 6 2 10 4 10 3 0 8 -4 11 -10z m15 -30 c0
-5 -5 -10 -11 -10 -5 0 -7 5 -4 10 3 6 8 10 11 10 2 0 4 -4 4 -10z"/>
<path d="M36 9885 c-19 -29 -20 -35 -4 -35 6 0 8 3 5 7 -4 3 2 12 13 20 11 8
20 18 20 24 0 17 -18 9 -34 -16z"/>
<path d="M155 9899 c-4 -6 -5 -12 -2 -15 2 -3 7 2 10 11 7 17 1 20 -8 4z"/>
<path d="M125 9869 c-4 -6 -5 -12 -2 -15 2 -3 7 2 10 11 7 17 1 20 -8 4z"/>
<path d="M61 9820 c-18 -17 -38 -30 -42 -30 -5 0 -9 -4 -9 -9 0 -15 53 16 78
44 30 34 15 31 -27 -5z"/>
<path d="M8740 9754 c0 -8 9 -14 20 -14 11 0 20 -5 20 -12 0 -6 2 -9 5 -6 3 3
2 14 -2 24 -9 22 -43 28 -43 8z"/>
<path d="M8780 9686 c0 -13 -5 -27 -10 -29 -6 -3 -5 -4 2 -3 14 3 31 56 17 56
-5 0 -9 -11 -9 -24z"/>
<path d="M8801 9623 c-1 -6 -4 -20 -7 -30 -5 -17 -5 -17 6 0 6 10 9 23 6 30
-3 9 -5 9 -5 0z"/>
<path d="M9543 9565 c0 -22 2 -30 4 -17 2 12 2 30 0 40 -3 9 -5 -1 -4 -23z"/>
<path d="M215 9555 c-22 -7 -33 -13 -25 -14 13 -1 13 -2 0 -11 -13 -9 -13 -10
0 -10 13 0 13 -1 0 -10 -8 -5 -11 -12 -8 -15 8 -8 114 40 124 57 5 8 2 9 -9 5
-9 -3 -19 -2 -22 3 -7 12 -10 12 -60 -5z"/>
<path d="M16 9228 c-4 -21 -6 -75 -5 -120 1 -46 2 -104 2 -130 0 -26 4 -45 9
-42 4 3 8 14 8 24 0 10 4 21 9 24 9 6 25 62 23 86 -2 23 -20 121 -30 160 l-8
35 -8 -37z"/>
<path d="M9945 8585 c0 -374 1 -526 2 -337 2 189 2 495 0 680 -1 185 -2 31 -2
-343z"/>
<path d="M101 9084 c0 -11 3 -14 6 -6 3 7 2 16 -1 19 -3 4 -6 -2 -5 -13z"/>
<path d="M101 9044 c0 -11 3 -14 6 -6 3 7 2 16 -1 19 -3 4 -6 -2 -5 -13z"/>
<path d="M9490 8890 c0 -11 5 -20 10 -20 6 0 10 9 10 20 0 11 -4 20 -10 20 -5
0 -10 -9 -10 -20z"/>
<path d="M943 8873 c9 -2 17 -9 17 -14 0 -5 8 -9 18 -9 15 1 15 2 -2 15 -11 8
-27 14 -35 14 -13 -1 -12 -2 2 -6z"/>
<path d="M1008 8823 c7 -3 16 -2 19 1 4 3 -2 6 -13 5 -11 0 -14 -3 -6 -6z"/>
<path d="M9133 8785 c0 -27 2 -38 4 -22 2 15 2 37 0 50 -2 12 -4 0 -4 -28z"/>
<path d="M1040 8801 c0 -5 7 -11 15 -15 8 -3 15 -1 15 3 0 5 -7 11 -15 15 -8
3 -15 1 -15 -3z"/>
<path d="M9465 8750 c-3 -5 1 -10 9 -10 9 0 16 5 16 10 0 6 -4 10 -9 10 -6 0
-13 -4 -16 -10z"/>
<path d="M8840 8704 c0 -14 4 -23 10 -19 6 3 10 15 10 26 0 10 -4 19 -10 19
-5 0 -10 -12 -10 -26z"/>
<path d="M9460 8716 c0 -2 7 -6 15 -10 8 -3 15 -1 15 4 0 6 -7 10 -15 10 -8 0
-15 -2 -15 -4z"/>
<path d="M9482 8665 c0 -16 2 -22 5 -12 2 9 2 23 0 30 -3 6 -5 -1 -5 -18z"/>
<path d="M9465 8570 c-4 -11 -8 -46 -10 -78 -1 -31 -4 -63 -6 -71 -2 -7 1 -15
7 -18 6 -2 14 10 18 28 9 45 7 79 -3 79 -6 0 -3 16 5 35 17 40 17 45 5 45 -5
0 -13 -9 -16 -20z"/>
<path d="M260 8372 c0 -52 -6 -70 -40 -131 -22 -38 -49 -86 -60 -105 -11 -20
-15 -36 -10 -36 6 0 10 5 10 10 0 19 29 10 41 -12 14 -27 56 -68 69 -68 11 0
21 -31 22 -71 1 -23 7 -33 26 -40 13 -5 26 -18 29 -29 6 -24 19 -26 27 -5 3 9
11 15 18 14 7 -2 28 1 47 5 24 6 36 4 42 -5 6 -10 9 -8 9 7 0 12 -6 27 -14 33
-15 12 -10 62 6 58 6 -1 12 11 13 27 5 39 15 46 15 9 0 -17 10 -43 23 -59 21
-27 40 -80 53 -151 5 -22 1 -41 -10 -58 -12 -18 -15 -36 -11 -56 4 -16 2 -29
-3 -29 -9 0 -13 -23 -29 -134 -5 -36 -4 -38 10 -24 21 21 47 85 47 117 0 15 4
31 9 37 6 5 15 40 21 78 11 67 3 125 -21 150 -5 6 -9 16 -9 24 0 8 -6 28 -14
45 -7 18 -22 59 -31 92 -16 53 -28 70 -100 140 -45 44 -96 93 -113 108 -18 16
-34 42 -38 62 -3 19 -12 39 -20 46 -12 10 -14 2 -14 -49z"/>
<path d="M1181 8374 c0 -11 3 -14 6 -6 3 7 2 16 -1 19 -3 4 -6 -2 -5 -13z"/>
<path d="M9440 8370 c12 -22 30 -18 30 6 0 8 -9 14 -20 14 -18 0 -19 -3 -10
-20z"/>
<path d="M9437 8313 c-11 -10 -8 -43 3 -43 6 0 10 11 10 25 0 26 -2 29 -13 18z"/>
<path d="M9171 8283 c7 -12 15 -20 18 -17 3 2 -3 12 -13 22 -17 16 -18 16 -5
-5z"/>
<path d="M9140 8250 c0 -5 5 -10 10 -10 6 0 10 5 10 10 0 6 -4 10 -10 10 -5 0
-10 -4 -10 -10z"/>
<path d="M9430 8249 c-12 -7 -12 -11 -2 -17 10 -7 11 -14 1 -35 -6 -14 -8 -34
-4 -44 6 -16 8 -16 16 5 5 13 6 29 2 34 -3 7 -1 8 5 4 8 -5 12 1 12 16 0 34
-13 49 -30 37z"/>
<path d="M9166 8191 c-4 -7 -5 -15 -2 -18 9 -9 19 4 14 18 -4 11 -6 11 -12 0z"/>
<path d="M9193 8153 c-7 -2 -12 -19 -12 -36 1 -24 3 -26 6 -9 6 30 23 28 23
-2 0 -14 5 -28 11 -31 6 -4 7 -14 4 -24 -4 -9 -8 -34 -11 -56 -2 -22 0 -33 3
-25 3 8 12 21 20 28 19 19 18 -6 -1 -34 -10 -13 -11 -25 -5 -35 5 -8 9 -27 9
-42 0 -16 4 -26 9 -23 5 3 7 16 3 28 -3 14 -2 19 6 14 9 -5 12 9 12 49 0 35
-5 57 -12 60 -7 3 -14 24 -15 47 -2 23 -7 46 -13 52 -5 5 -10 18 -10 28 0 18
-5 20 -27 11z m67 -207 c0 -3 -4 -8 -10 -11 -5 -3 -10 -1 -10 4 0 6 5 11 10
11 6 0 10 -2 10 -4z"/>
<path d="M9426 8114 c-3 -9 -6 -23 -6 -31 0 -13 3 -13 15 -3 17 14 20 36 6 44
-5 3 -12 -1 -15 -10z"/>
<path d="M9190 8059 c0 -5 5 -7 10 -4 6 3 10 8 10 11 0 2 -4 4 -10 4 -5 0 -10
-5 -10 -11z"/>
<path d="M9432 8005 c0 -16 2 -22 5 -12 2 9 2 23 0 30 -3 6 -5 -1 -5 -18z"/>
<path d="M71 7984 c0 -11 3 -14 6 -6 3 7 2 16 -1 19 -3 4 -6 -2 -5 -13z"/>
<path d="M205 7955 c17 -14 32 -20 34 -14 4 13 -28 38 -49 38 -9 0 -4 -9 15
-24z"/>
<path d="M50 7945 c-6 -8 -10 -19 -8 -26 2 -6 9 0 16 15 13 29 10 33 -8 11z"/>
<path d="M9266 7855 c-10 -15 -12 -26 -6 -30 6 -3 10 1 10 10 0 11 5 15 15 11
9 -3 15 0 15 9 0 25 -17 25 -34 0z"/>
<path d="M291 7841 c-1 -27 2 -32 11 -23 8 8 8 17 0 34 -10 22 -11 21 -11 -11z"/>
<path d="M9270 7777 c1 -30 1 -31 15 -13 13 17 15 18 15 3 0 -9 7 -17 14 -17
24 0 0 55 -24 57 -16 1 -20 -4 -20 -30z"/>
<path d="M9292 7700 c0 -14 2 -19 5 -12 2 6 2 18 0 25 -3 6 -5 1 -5 -13z"/>
<path d="M9300 7652 c0 -7 5 -12 10 -12 6 0 10 -6 10 -13 0 -7 9 -13 20 -14
11 -1 20 3 20 9 0 6 -3 8 -7 5 -3 -4 -17 3 -30 15 -13 12 -23 16 -23 10z"/>
<path d="M9363 7583 c-18 -7 -16 -20 2 -20 8 0 15 6 15 14 0 7 -1 13 -2 12 -2
0 -9 -3 -15 -6z"/>
<path d="M9365 7530 c-3 -5 -1 -10 4 -10 6 0 11 5 11 10 0 6 -2 10 -4 10 -3 0
-8 -4 -11 -10z"/>
<path d="M511 7474 c0 -11 3 -14 6 -6 3 7 2 16 -1 19 -3 4 -6 -2 -5 -13z"/>
<path d="M20 7308 c0 -30 1 -31 16 -16 9 9 14 24 11 32 -11 27 -27 17 -27 -16z"/>
<path d="M22 7246 c2 -22 7 -26 27 -24 28 3 35 17 20 38 -8 12 -12 12 -16 2
-4 -10 -8 -10 -19 -1 -11 9 -14 7 -12 -15z"/>
<path d="M9364 7228 c-4 -6 -3 -8 4 -4 5 3 12 1 14 -6 3 -8 6 -9 11 -1 4 6 0
13 -8 17 -8 3 -17 0 -21 -6z"/>
<path d="M9430 7236 c0 -2 7 -7 16 -10 8 -3 12 -2 9 4 -6 10 -25 14 -25 6z"/>
<path d="M9354 7129 c-3 -6 -1 -15 6 -19 7 -4 10 -15 7 -24 -4 -9 -2 -16 3
-16 13 0 13 57 1 65 -5 3 -13 0 -17 -6z"/>
<path d="M9470 7116 c0 -8 -6 -16 -12 -19 -7 -2 -10 -7 -7 -11 9 -10 39 5 39
19 0 8 -4 17 -10 20 -5 3 -10 0 -10 -9z"/>
<path d="M9347 6950 c8 -46 10 -47 15 -11 2 16 1 28 -3 25 -4 -2 -10 2 -12 8
-3 7 -3 -3 0 -22z"/>
<path d="M9525 6951 c-3 -5 -1 -12 5 -16 5 -3 10 1 10 9 0 18 -6 21 -15 7z"/>
<path d="M9944 6765 c0 -110 2 -156 3 -103 2 53 2 143 0 200 -1 57 -3 13 -3
-97z"/>
<path d="M9332 6863 c5 -25 28 -28 28 -4 0 12 -6 21 -16 21 -9 0 -14 -7 -12
-17z"/>
<path d="M191 6844 c0 -11 3 -14 6 -6 3 7 2 16 -1 19 -3 4 -6 -2 -5 -13z"/>
<path d="M9337 6823 c-12 -12 -7 -54 8 -69 13 -14 15 -10 15 30 0 43 -7 55
-23 39z"/>
<path d="M9320 6705 c0 -17 2 -18 24 -9 23 9 20 24 -4 24 -11 0 -20 -7 -20
-15z"/>
<path d="M271 6694 c0 -11 3 -14 6 -6 3 7 2 16 -1 19 -3 4 -6 -2 -5 -13z"/>
<path d="M9941 6484 c0 -11 3 -14 6 -6 3 7 2 16 -1 19 -3 4 -6 -2 -5 -13z"/>
<path d="M9798 6191 c-20 -24 -14 -31 29 -31 30 0 34 3 31 23 -4 29 -38 34
-60 8z m52 5 c0 -3 -4 -8 -10 -11 -5 -3 -10 -1 -10 4 0 6 5 11 10 11 6 0 10
-2 10 -4z"/>
<path d="M9835 6140 c3 -5 -1 -10 -9 -10 -21 0 -21 -39 0 -47 20 -8 76 9 82
25 2 7 -9 15 -27 18 -17 4 -31 10 -31 15 0 5 -5 9 -11 9 -5 0 -7 -4 -4 -10z"/>
<path d="M9287 5927 c-9 -11 -24 -46 -33 -76 -9 -31 -20 -60 -24 -66 -4 -5
-14 -38 -20 -72 -12 -60 -4 -116 20 -148 5 -5 11 -50 15 -99 6 -70 12 -95 29
-113 11 -13 29 -33 39 -43 9 -11 17 -22 17 -25 0 -4 27 -32 61 -64 84 -81 108
-130 72 -150 -10 -5 -18 -20 -18 -33 -1 -13 -10 -39 -20 -58 -22 -43 -22 -174
0 -197 8 -7 19 -29 26 -47 7 -19 23 -39 36 -45 31 -14 29 -34 -12 -119 -19
-40 -30 -72 -25 -72 6 0 10 -13 10 -29 0 -29 14 -41 51 -41 25 0 24 -17 -5
-55 -17 -21 -22 -39 -19 -58 7 -37 18 -34 36 11 9 20 16 31 16 24 1 -21 21 -3
21 19 0 10 5 19 10 19 6 0 10 -13 10 -29 0 -17 4 -32 9 -35 5 -3 11 -15 14
-26 3 -11 1 -18 -4 -14 -5 3 -9 -10 -9 -28 0 -18 -6 -40 -13 -48 -17 -22 -64
-50 -82 -50 -8 0 -15 -7 -15 -15 0 -14 14 -20 35 -15 6 2 18 2 28 2 9 0 17 3
17 8 0 5 14 7 30 4 26 -6 30 -4 30 15 0 19 -3 20 -20 11 -34 -18 -21 4 16 27
35 23 64 22 64 -3 0 -16 -26 -96 -46 -144 -33 -76 -49 -100 -67 -100 -28 0
-50 27 -44 55 2 14 0 25 -4 25 -5 0 -9 -9 -9 -20 0 -21 -15 -27 -25 -10 -3 6
-17 7 -31 4 -20 -5 -24 -2 -24 16 0 12 4 30 10 40 15 28 15 120 0 130 -7 4 -9
13 -5 19 5 8 -1 10 -18 6 -20 -6 -26 -2 -34 22 -6 15 -7 37 -2 48 12 32 10 40
-5 19 -8 -10 -17 -16 -20 -13 -23 23 -29 276 -11 461 5 49 4 83 -2 90 -6 7
-14 30 -17 52 -4 21 -12 47 -19 57 -8 13 -8 24 2 43 20 36 8 56 -34 56 -25 0
-35 4 -35 15 0 9 -13 18 -31 22 -21 4 -38 18 -56 47 -25 39 -161 176 -175 176
-4 0 -10 -4 -13 -10 -3 -5 -1 -10 5 -10 6 0 8 -4 5 -10 -3 -5 -1 -10 5 -10 6
0 9 -4 5 -9 -7 -12 33 -51 52 -51 7 0 13 -9 13 -20 0 -12 7 -20 17 -20 9 0 14
-3 10 -6 -3 -4 0 -13 8 -21 8 -8 15 -28 15 -44 0 -16 3 -29 8 -29 4 0 6 -18 4
-40 -4 -39 -16 -52 -25 -27 -3 6 -6 0 -6 -15 -1 -29 -19 -36 -39 -16 -9 9 -12
9 -13 -2 0 -8 -9 4 -19 28 -11 23 -23 42 -28 42 -6 0 -12 8 -14 18 -3 9 -20
26 -39 36 -34 20 -34 20 -19 0 8 -10 17 -21 20 -24 13 -13 50 -70 50 -77 0 -4
11 -21 25 -38 13 -16 28 -34 33 -40 4 -5 17 -26 27 -45 11 -19 25 -42 32 -50
6 -8 16 -27 21 -41 9 -22 8 -25 -11 -25 -16 1 -21 -4 -19 -18 2 -11 -1 -15 -8
-11 -6 4 -9 13 -6 21 3 8 -1 14 -9 14 -8 0 -15 -5 -15 -11 0 -5 -4 -7 -10 -4
-12 7 -13 -15 -2 -31 4 -6 15 -13 25 -17 23 -9 32 -34 18 -51 -6 -7 -27 -13
-48 -14 -20 -1 -39 -6 -43 -12 -4 -6 -14 -8 -23 -4 -9 3 -14 11 -10 17 4 6 0
8 -11 4 -20 -8 -116 13 -116 25 0 4 -6 8 -14 8 -8 0 -22 7 -30 16 -9 8 -21 14
-27 12 -12 -4 63 -58 81 -58 5 0 10 -4 10 -8 0 -5 17 -16 38 -24 106 -44 122
-52 122 -58 0 -3 18 -14 41 -24 22 -10 43 -24 46 -32 3 -8 11 -14 19 -14 8 0
14 -4 14 -9 0 -5 10 -11 23 -14 12 -3 40 -12 62 -20 34 -13 49 -26 94 -83 17
-21 17 -84 1 -84 -5 0 -12 11 -16 25 -7 29 -29 32 -62 9 -25 -17 -30 -44 -8
-44 23 0 27 -29 6 -42 -11 -7 -20 -17 -20 -22 0 -6 5 -5 12 2 7 7 23 12 36 12
15 0 21 4 16 12 -4 7 -3 8 5 4 6 -4 14 0 17 8 3 9 10 16 15 16 13 0 11 -38 -2
-42 -6 -2 -13 -34 -15 -72 -2 -37 -8 -73 -13 -80 -5 -6 -15 -30 -22 -53 -8
-31 -18 -43 -31 -43 -10 0 -18 -5 -18 -10 0 -7 -6 -7 -19 0 -26 14 -65 -2 -87
-35 -9 -14 -24 -25 -33 -25 -24 1 -66 41 -81 78 -10 27 -18 32 -45 32 -18 0
-49 -7 -69 -15 -28 -12 -41 -13 -57 -4 -35 18 -67 3 -90 -44 -17 -34 -21 -64
-23 -154 -2 -72 -7 -117 -15 -127 -8 -10 -11 -41 -9 -95 3 -82 0 -91 -24 -68
-22 21 -106 77 -116 77 -6 0 -12 6 -15 13 -2 8 -28 12 -82 12 -54 0 -80 -4
-83 -12 -2 -7 -10 -13 -17 -13 -15 0 -25 -22 -25 -55 0 -26 45 -85 64 -85 7 0
13 -7 13 -15 0 -8 -7 -15 -15 -15 -13 0 -35 -21 -72 -67 -17 -21 -11 -59 15
-104 14 -24 25 -51 25 -59 0 -12 10 -14 45 -12 25 2 53 1 63 -4 9 -4 40 -8 69
-9 33 -1 59 -7 71 -18 10 -9 23 -17 29 -17 11 0 11 -2 19 -75 6 -46 9 -51 47
-70 48 -24 74 -57 82 -106 6 -32 3 -42 -28 -75 -23 -26 -32 -44 -27 -54 32
-63 33 -69 19 -87 -37 -46 -44 -53 -56 -53 -7 0 -13 -8 -13 -18 0 -11 -8 -26
-17 -34 -18 -16 -94 -34 -125 -29 -14 2 -18 -5 -18 -28 0 -20 -5 -31 -14 -31
-8 0 -16 -6 -19 -14 -4 -9 -14 -12 -26 -9 -12 3 -21 1 -21 -5 0 -6 -9 -13 -19
-17 -16 -5 -19 -12 -14 -40 4 -24 2 -35 -7 -35 -7 0 -10 -7 -7 -14 4 -10 1
-13 -9 -9 -19 7 -30 53 -15 62 9 6 8 11 -3 21 -21 17 -48 6 -39 -16 4 -12 3
-15 -6 -10 -7 5 -25 12 -39 16 l-27 7 35 11 c19 5 27 11 18 11 -10 1 -18 5
-18 10 0 5 -10 11 -23 15 -32 8 -61 62 -67 126 l-5 55 -44 7 c-23 4 -53 10
-65 13 -17 5 -18 4 -5 -4 11 -7 15 -19 11 -36 -3 -19 0 -25 14 -25 16 0 16 2
4 10 -8 5 -11 12 -7 17 11 10 41 -10 45 -31 3 -13 -1 -16 -22 -10 -16 4 -26 2
-26 -5 0 -6 4 -11 8 -11 5 0 17 -17 28 -37 10 -21 22 -40 26 -43 3 -3 1 -22
-5 -42 -8 -25 -18 -38 -32 -40 -12 -2 -20 -11 -20 -21 0 -10 -8 -24 -18 -31
-23 -17 -22 -24 9 -52 27 -25 49 -31 59 -14 3 6 28 10 54 10 26 0 52 5 58 11
8 8 24 -2 57 -33 38 -35 47 -50 48 -80 1 -32 5 -37 31 -42 16 -3 33 -3 38 0 5
3 9 0 9 -5 0 -6 5 -11 10 -11 25 0 6 48 -35 90 -43 43 -57 70 -35 70 5 0 12
11 16 25 3 14 11 25 16 25 6 0 8 -7 4 -15 -4 -12 3 -15 33 -15 49 0 71 -24 71
-79 0 -34 -6 -48 -31 -72 -21 -20 -28 -34 -21 -41 6 -6 25 6 57 36 l47 47 -12
45 c-7 25 -24 53 -38 65 -33 25 -23 34 22 18 44 -16 59 -4 26 21 -14 11 -19
20 -12 20 6 0 12 11 12 24 0 38 62 86 110 86 32 0 42 -5 61 -32 13 -18 26 -35
29 -38 4 -3 9 -13 13 -22 3 -10 12 -18 20 -18 7 0 21 -13 30 -30 14 -23 25
-30 48 -30 17 0 32 6 35 15 7 18 55 20 72 3 9 -9 12 -9 12 3 0 9 -11 21 -24
29 -23 12 -40 43 -29 54 10 10 43 -15 44 -32 0 -13 3 -11 9 6 5 12 13 22 18
22 5 0 30 -20 55 -45 26 -25 52 -45 59 -45 8 0 9 -3 2 -10 -7 -7 -20 -6 -40 5
-16 8 -40 15 -54 14 l-25 0 23 -11 c12 -6 22 -15 22 -20 0 -4 8 -8 18 -8 10 0
23 -5 30 -12 19 -19 60 10 98 70 32 50 46 112 24 112 -5 0 -10 7 -10 15 0 28
15 15 74 -66 33 -45 66 -83 75 -86 9 -4 22 -11 29 -16 17 -13 173 -10 237 4
27 7 66 22 87 35 21 13 42 24 47 24 5 0 25 18 44 40 19 22 42 40 51 40 10 0
26 5 37 10 17 10 19 22 19 120 l0 110 -42 0 c-24 0 -61 5 -83 12 l-40 12 50 7
c28 3 65 12 83 20 l32 13 0 138 c0 104 -3 138 -12 138 -9 0 -8 4 2 11 11 8 7
9 -19 5 -18 -3 -40 -6 -47 -6 -8 0 -11 -6 -7 -16 4 -10 0 -20 -10 -26 -15 -8
-15 -11 -2 -32 16 -25 8 -67 -15 -81 -19 -12 -23 3 -10 36 12 28 11 33 -3 44
-9 7 -17 17 -17 22 0 24 -48 51 -102 58 -32 3 -60 11 -63 16 -4 5 0 9 8 9 28
0 6 39 -34 62 -22 12 -39 28 -39 35 0 21 14 15 45 -17 16 -16 34 -30 40 -30 6
0 21 -9 32 -19 11 -11 37 -23 57 -26 20 -4 33 -11 30 -16 -9 -16 83 -10 96 6
7 8 25 15 41 15 l29 0 0 335 c0 241 -3 335 -11 335 -8 0 -8 5 1 15 10 12 10
15 -4 15 -19 0 -21 22 -4 49 13 21 4 54 -15 49 -6 -3 -16 -14 -21 -25 -5 -11
-18 -26 -29 -32 -16 -10 -22 -8 -43 14 -21 23 -26 24 -46 13 l-23 -13 23 -3
c12 -2 20 -8 17 -13 -4 -5 0 -9 7 -9 9 0 9 -3 -2 -10 -11 -7 -18 -5 -27 6 -6
9 -16 13 -21 10 -6 -3 -12 0 -15 6 -4 11 -8 11 -23 0 -49 -32 -65 -28 -39 12
10 14 15 32 12 39 -3 8 8 25 25 38 17 13 36 29 42 36 25 23 114 73 130 73 9 0
16 5 16 10 0 6 11 10 25 10 18 0 25 5 25 20 0 21 -15 27 -25 10 -12 -20 -94
-52 -115 -45 -12 4 -19 2 -18 -3 5 -19 -146 -141 -159 -128 -3 3 10 29 29 58
51 78 98 165 98 182 0 9 4 16 9 16 5 0 13 10 16 23 4 12 25 45 46 74 22 29 39
55 39 57 0 7 27 41 58 73 13 15 22 36 22 57 0 30 -4 34 -42 45 -56 17 -68 28
-68 62 0 42 42 51 73 15 13 -14 26 -26 30 -26 4 0 7 91 7 201 0 166 -2 200
-13 190 -10 -8 -17 -7 -27 2 -9 8 -11 9 -6 0 3 -6 1 -15 -5 -18 -6 -4 -13 2
-16 14 -3 11 -9 18 -15 15 -5 -3 -15 -1 -22 5 -10 9 -15 8 -19 -2 -3 -8 3 -21
14 -31 16 -13 17 -19 7 -36 -18 -29 -28 -25 -28 11 0 24 -4 30 -15 25 -8 -3
-15 -1 -15 4 0 6 4 10 9 10 4 0 6 11 4 24 -3 14 2 35 11 48 23 32 20 51 -11
79 l-28 24 43 3 c23 2 42 7 42 13 0 5 9 18 21 30 25 25 20 32 -22 31 l-32 -1
24 17 c16 11 24 12 27 4 2 -7 12 -12 23 -12 12 0 19 -7 19 -17 -1 -25 -35
-151 -43 -159 -4 -4 -7 -16 -7 -27 0 -16 3 -17 15 -7 18 15 45 68 45 87 0 8 5
11 10 8 7 -4 10 86 10 264 0 236 -2 270 -15 265 -8 -4 -15 -10 -15 -15 0 -4
-11 -25 -25 -45 -16 -24 -25 -51 -25 -77 0 -38 -1 -40 -15 -21 -13 17 -14 8
-15 -92 l0 -110 -37 -21 c-49 -28 -115 -93 -139 -138 -22 -41 -42 -44 -90 -14
-30 18 -34 26 -34 62 0 34 11 58 55 126 30 46 55 89 55 94 0 6 -9 20 -19 31
-10 12 -28 39 -40 61 -12 22 -21 34 -21 27 0 -31 -18 2 -25 45 -4 29 -14 53
-26 61 -10 7 -19 20 -19 28 0 18 -14 18 -49 0 -15 -8 -38 -12 -49 -9 -39 10
-52 -2 -39 -36 9 -26 9 -34 -5 -48 -16 -15 -18 -15 -37 8 -26 31 -41 82 -46
165 -4 55 -2 65 10 60 16 -6 17 -2 17 52 0 17 4 32 9 32 4 0 11 17 14 38 3 20
10 45 16 54 22 41 4 69 -24 35z m275 -1067 c5 -34 -1 -38 -23 -12 -30 35 -31
42 -6 42 20 0 26 -6 29 -30z m199 0 c5 0 9 -9 9 -20 0 -11 -5 -20 -12 -20 -6
0 -8 3 -5 7 4 3 0 14 -9 24 -10 11 -13 23 -8 31 7 10 9 9 12 -4 2 -10 8 -18
13 -18z m-31 -30 c0 -5 -4 -10 -10 -10 -5 0 -10 5 -10 10 0 6 5 10 10 10 6 0
10 -4 10 -10z m100 -187 c0 -34 -3 -41 -15 -37 -15 6 -22 84 -8 97 12 12 23
-17 23 -60z m-620 26 c0 -6 -4 -7 -10 -4 -5 3 -10 11 -10 16 0 6 5 7 10 4 6
-3 10 -11 10 -16z m494 -3 c-9 -23 -33 -28 -27 -5 3 10 11 19 19 19 7 0 11 -6
8 -14z m-72 -93 c45 -4 46 -6 56 -46 17 -68 25 -219 14 -249 -7 -17 -21 -28
-41 -33 -17 -4 -31 -11 -31 -16 0 -5 -7 -9 -15 -9 -17 0 -21 35 -5 45 6 3 10
22 10 42 0 20 5 64 12 99 12 69 8 85 -17 60 -9 -9 -23 -16 -31 -16 -8 0 -14
-4 -14 -10 0 -5 -5 -10 -10 -10 -7 0 -7 6 0 19 15 28 12 68 -4 74 -10 4 -16
-2 -18 -21 -4 -32 -34 -42 -53 -16 -16 22 -9 44 14 44 9 0 12 3 6 8 -9 6 -11
17 -6 37 1 7 65 6 133 -2z m120 -88 c-2 -44 -7 -84 -12 -88 -8 -9 -24 51 -35
131 -5 43 -5 43 22 40 l28 -3 -3 -80z m64 -62 c57 -41 57 -40 32 -81 -12 -20
-26 -38 -30 -40 -4 -2 -8 -10 -8 -18 0 -8 -4 -14 -10 -14 -5 0 -10 -5 -10 -11
0 -16 -63 -119 -73 -119 -5 0 -6 8 -2 18 4 9 10 28 13 42 2 14 11 32 18 41 8
9 11 18 8 22 -3 3 -3 11 1 17 4 6 7 49 8 95 0 47 5 85 9 85 4 0 7 3 7 8 -5 31
5 39 11 8 4 -22 16 -45 26 -53z m-219 -75 c-3 -8 -6 -5 -6 6 -1 11 2 17 5 13
3 -3 4 -12 1 -19z m-217 -237 c0 -11 4 -21 8 -23 5 -1 3 -16 -3 -33 l-13 -29
-11 39 c-15 53 -14 65 4 65 8 0 15 -9 15 -19z m8 -131 c7 -12 18 -18 23 -14 6
4 15 0 20 -7 6 -10 9 -11 9 -1 0 8 5 9 18 3 9 -5 36 -17 59 -26 26 -11 43 -25
45 -37 2 -10 7 -17 11 -16 5 2 13 -5 19 -15 7 -14 6 -23 -6 -36 -9 -10 -16
-25 -16 -34 0 -9 -14 -32 -31 -51 -22 -25 -29 -41 -24 -56 7 -21 -10 -29 -18
-7 -3 6 -6 2 -6 -10 -1 -13 -7 -23 -14 -23 -18 0 -47 -52 -47 -84 0 -14 -4
-26 -10 -26 -13 0 -9 -19 9 -41 11 -14 20 -15 48 -7 39 11 73 3 73 -18 0 -9
-10 -14 -27 -14 -21 0 -33 -8 -45 -30 -17 -31 -52 -43 -42 -15 4 8 13 15 21
15 12 0 12 2 -1 16 -9 8 -16 20 -16 25 0 13 -28 11 -32 -3 -6 -16 -28 0 -28
20 0 9 -5 24 -10 32 -13 21 -34 -1 -36 -38 -1 -15 -2 -43 -3 -62 -2 -29 -4
-32 -11 -15 -11 27 -1 125 16 152 16 25 19 93 4 93 -5 0 -12 11 -16 24 -3 13
-21 39 -40 57 -19 18 -34 39 -34 46 0 7 -9 17 -20 23 -11 6 -20 17 -20 25 0 8
-4 15 -10 15 -5 0 -10 11 -10 25 0 14 5 25 10 25 6 0 10 6 10 14 0 9 7 12 18
9 10 -2 25 3 33 13 12 16 12 17 -4 11 -11 -4 -16 -3 -12 4 4 5 15 7 25 4 26
-8 71 12 77 35 7 26 25 26 41 0z m262 -134 c0 -3 -4 -8 -10 -11 -5 -3 -10 -1
-10 4 0 6 5 11 10 11 6 0 10 -2 10 -4z m73 -73 c-7 -2 -21 -2 -30 0 -10 3 -4
5 12 5 17 0 24 -2 18 -5z m-513 -111 c0 -16 -56 -71 -75 -74 -29 -5 -30 28 -1
57 23 23 76 35 76 17z m-309 -89 c-8 -15 -10 -15 -11 -2 0 17 10 32 18 25 2
-3 -1 -13 -7 -23z m651 -154 c5 -16 84 -15 114 1 42 23 37 3 -9 -39 -34 -32
-44 -47 -39 -63 10 -40 34 -58 77 -58 22 0 47 -5 55 -10 12 -8 9 -10 -12 -10
-15 0 -30 -4 -33 -10 -3 -5 -15 -10 -25 -10 -10 0 -21 -6 -24 -12 -5 -10 -7
-10 -12 0 -3 6 -17 12 -31 12 -20 0 -24 3 -18 18 12 27 11 67 -2 67 -6 0 -14
3 -18 7 -4 4 -14 4 -23 1 -16 -6 -16 -5 0 13 16 19 22 36 19 62 -1 11 -4 10
-16 -2 -8 -8 -15 -20 -15 -26 0 -7 -8 -9 -22 -4 -30 8 -36 16 -20 21 6 3 12
13 12 22 0 30 34 45 42 20z m-139 -71 c4 -10 8 -9 16 2 8 11 11 11 12 3 1 -7
3 -17 4 -23 1 -5 3 -14 4 -19 0 -5 9 -12 19 -14 9 -3 3 -5 -14 -6 -16 0 -42
-7 -57 -13 -22 -11 -27 -20 -27 -49 0 -48 -11 -56 -27 -18 -15 36 -17 105 -3
114 5 3 7 12 3 20 -4 12 3 15 30 15 19 0 38 -6 40 -12z m422 -8 c-3 -5 -21
-12 -40 -16 -19 -3 -32 -10 -29 -15 3 -5 -11 -9 -30 -9 -20 0 -36 5 -36 10 0
6 12 10 28 10 15 1 41 7 57 15 36 16 58 19 50 5z m-1178 -70 c47 -34 73 -70
73 -100 0 -35 -24 -21 -75 45 -27 36 -53 65 -57 65 -5 0 -8 5 -8 10 0 18 25
10 67 -20z m858 -20 c3 -5 -1 -10 -10 -10 -9 0 -13 5 -10 10 3 6 8 10 10 10 2
0 7 -4 10 -10z m8 -71 c-17 -17 -37 -1 -22 17 8 10 15 12 23 4 7 -7 7 -13 -1
-21z m-170 -29 c-4 -17 -2 -19 13 -13 18 6 18 6 2 -10 -9 -9 -19 -17 -22 -17
-3 0 -28 -13 -54 -30 -55 -33 -83 -40 -62 -15 7 8 17 15 22 15 12 0 38 26 38
39 0 10 48 51 60 51 5 0 6 -9 3 -20z m171 -9 c9 -13 -27 -19 -54 -9 -24 9 -24
10 -6 23 19 14 47 7 60 -14z m96 -409 c0 -19 -27 -32 -64 -31 -23 1 -31 4 -19
6 12 2 27 11 33 19 13 15 50 20 50 6z m-224 -204 c74 -57 90 -80 60 -91 -16
-6 -76 41 -106 83 -20 29 -20 30 -3 30 11 0 32 -10 49 -22z m-1171 -127 l-20
-8 20 -5 c18 -5 18 -6 -2 -7 -14 -1 -23 5 -23 14 0 9 9 15 23 14 21 0 21 -1 2
-8z m238 -68 c-7 -2 -21 -2 -30 0 -10 3 -4 5 12 5 17 0 24 -2 18 -5z m-8 -23
c-3 -5 -10 -10 -16 -10 -5 0 -9 5 -9 10 0 6 7 10 16 10 8 0 12 -4 9 -10z"/>
<path d="M9380 3736 c0 -2 7 -17 15 -32 l15 -29 0 33 c0 22 -5 32 -15 32 -8 0
-15 -2 -15 -4z"/>
<path d="M600 5749 c0 -5 5 -7 10 -4 6 3 10 8 10 11 0 2 -4 4 -10 4 -5 0 -10
-5 -10 -11z"/>
<path d="M780 5703 c0 -10 -3 -29 -6 -43 -5 -23 -5 -23 10 4 18 32 21 56 6 56
-5 0 -10 -8 -10 -17z"/>
<path d="M480 5662 c0 -5 7 -16 16 -23 14 -12 16 -11 13 5 -4 20 -29 35 -29
18z"/>
<path d="M9851 5644 c0 -11 3 -14 6 -6 3 7 2 16 -1 19 -3 4 -6 -2 -5 -13z"/>
<path d="M9512 5630 c0 -14 2 -19 5 -12 2 6 2 18 0 25 -3 6 -5 1 -5 -13z"/>
<path d="M9300 5611 c0 -6 5 -13 10 -16 6 -3 10 1 10 9 0 9 -4 16 -10 16 -5 0
-10 -4 -10 -9z"/>
<path d="M692 5550 c0 -14 2 -19 5 -12 2 6 2 18 0 25 -3 6 -5 1 -5 -13z"/>
<path d="M9551 5534 c0 -11 3 -14 6 -6 3 7 2 16 -1 19 -3 4 -6 -2 -5 -13z"/>
<path d="M9746 5504 c-5 -14 -4 -15 9 -4 17 14 19 20 6 20 -5 0 -12 -7 -15
-16z"/>
<path d="M9590 5498 c0 -9 5 -20 10 -23 13 -8 13 5 0 25 -8 13 -10 13 -10 -2z"/>
<path d="M719 5490 c-7 -16 -4 -90 4 -90 5 0 7 -7 3 -15 -3 -8 -1 -15 4 -15 6
0 10 -5 10 -11 0 -5 -4 -7 -10 -4 -15 9 -12 -4 5 -21 9 -9 15 -11 15 -4 0 6 5
8 10 5 18 -11 7 45 -20 110 -5 11 -11 27 -13 35 -3 8 -6 13 -8 10z"/>
<path d="M9653 5383 c-15 -5 -17 -23 -4 -23 5 0 11 7 15 15 3 8 4 15 3 14 -1
0 -8 -3 -14 -6z"/>
<path d="M9231 5354 c0 -11 3 -14 6 -6 3 7 2 16 -1 19 -3 4 -6 -2 -5 -13z"/>
<path d="M9230 5297 c0 -20 4 -37 10 -37 5 0 7 14 3 33 -8 45 -13 47 -13 4z"/>
<path d="M767 5300 c-3 -11 -16 -24 -29 -29 -12 -6 -17 -10 -9 -10 18 -1 40
-31 41 -56 0 -11 6 -32 14 -47 8 -15 17 -40 21 -57 3 -17 15 -47 25 -68 10
-21 21 -54 25 -73 3 -19 13 -44 21 -55 15 -20 15 -20 34 3 16 19 17 28 8 50
-10 27 -13 34 -38 102 -7 19 -15 47 -17 63 -3 15 -9 27 -14 27 -5 0 -6 7 -2
15 3 9 -1 23 -9 33 -8 9 -23 41 -34 70 -19 56 -29 64 -37 32z"/>
<path d="M9220 5230 c0 -5 5 -10 11 -10 5 0 7 5 4 10 -3 6 -8 10 -11 10 -2 0
-4 -4 -4 -10z"/>
<path d="M9215 5159 c-9 -14 -2 -20 14 -10 8 6 9 11 3 15 -6 3 -14 1 -17 -5z"/>
<path d="M920 4890 c0 -12 -10 -24 -22 -30 -13 -5 -18 -9 -11 -9 6 -1 22 -30
35 -66 12 -36 26 -65 29 -65 3 0 14 9 24 20 15 16 16 25 7 43 -6 12 -14 32
-17 45 -4 12 -14 22 -23 23 -9 0 -12 3 -6 5 13 5 6 54 -7 54 -5 0 -9 -9 -9
-20z"/>
<path d="M2 4870 c0 -14 2 -19 5 -12 2 6 2 18 0 25 -3 6 -5 1 -5 -13z"/>
<path d="M3 4750 c0 -47 2 -66 4 -42 2 23 2 61 0 85 -2 23 -4 4 -4 -43z"/>
<path d="M8690 4760 c6 -11 13 -20 16 -20 2 0 0 9 -6 20 -6 11 -13 20 -16 20
-2 0 0 -9 6 -20z"/>
<path d="M990 4710 c0 -11 -7 -20 -15 -20 -12 0 -14 -7 -9 -27 12 -49 39 -98
53 -98 8 0 16 -6 19 -12 2 -7 -3 -13 -12 -13 -20 0 -20 -11 -1 -36 8 -10 15
-30 15 -44 0 -32 23 -76 38 -73 6 2 14 -8 18 -22 3 -14 12 -25 20 -25 15 0 19
26 5 34 -5 3 -12 23 -15 43 -10 55 -29 93 -46 93 -12 0 -12 2 -2 9 11 6 10 17
-7 52 -11 24 -27 70 -36 102 -17 59 -25 71 -25 37z"/>
<path d="M3 4585 c0 -33 2 -45 4 -27 2 18 2 45 0 60 -2 15 -4 0 -4 -33z"/>
<path d="M9412 4473 c-6 -32 -12 -72 -11 -89 l1 -29 8 30 c22 78 26 102 20
124 -4 19 -8 11 -18 -36z"/>
<path d="M3 4450 c0 -36 2 -50 4 -32 2 17 2 47 0 65 -2 17 -4 3 -4 -33z"/>
<path d="M3 4290 c0 -25 2 -35 4 -22 2 12 2 32 0 45 -2 12 -4 2 -4 -23z"/>
<path d="M1130 4316 c0 -8 5 -18 10 -21 6 -3 10 1 10 9 0 8 -4 18 -10 21 -5 3
-10 -1 -10 -9z"/>
<path d="M9548 4305 c-24 -31 -23 -44 0 -17 15 17 21 19 31 9 10 -9 12 -8 9 7
-5 28 -21 29 -40 1z"/>
<path d="M9460 4305 c-7 -9 -10 -18 -7 -21 3 -3 10 4 17 15 13 25 8 27 -10 6z"/>
<path d="M1107 4283 c-7 -11 18 -51 26 -43 3 3 0 16 -7 29 -7 13 -16 19 -19
14z"/>
<path d="M9891 4234 c0 -11 3 -14 6 -6 3 7 2 16 -1 19 -3 4 -6 -2 -5 -13z"/>
<path d="M3 4195 c0 -22 2 -30 4 -17 2 12 2 30 0 40 -3 9 -5 -1 -4 -23z"/>
<path d="M1133 4203 c2 -15 11 -46 21 -68 9 -22 20 -53 23 -70 3 -16 9 -32 12
-35 3 -3 14 -30 24 -60 11 -30 21 -62 25 -70 3 -8 24 -69 47 -135 27 -77 47
-119 55 -117 8 2 10 -3 7 -13 -4 -8 -1 -15 6 -15 8 0 8 -3 -2 -9 -10 -6 -10
-10 -1 -16 6 -4 9 -13 6 -21 -3 -7 -1 -16 4 -19 6 -4 10 -17 10 -30 0 -13 4
-26 9 -29 5 -3 12 -22 15 -41 4 -19 11 -35 15 -35 5 0 11 -12 14 -27 5 -26 39
-128 54 -163 3 -8 5 -21 4 -27 -1 -7 3 -13 9 -13 5 0 10 -9 10 -21 0 -13 4
-18 12 -13 7 4 8 3 4 -4 -4 -6 3 -30 16 -52 22 -39 38 -51 38 -29 0 5 5 7 10
4 16 -10 11 10 -8 31 -10 10 -16 27 -14 37 2 10 -3 33 -12 52 -9 18 -16 42
-16 54 0 12 -4 21 -10 21 -5 0 -10 9 -10 20 0 11 -12 26 -27 35 -16 9 -21 14
-11 11 9 -2 18 -2 21 1 6 5 -40 121 -55 137 -4 6 -8 18 -8 29 0 11 -4 15 -11
11 -8 -4 -9 0 -4 15 6 21 -13 51 -34 51 -13 0 -14 17 -2 24 5 4 5 21 0 43 -6
21 -11 43 -12 50 -2 7 -6 16 -10 19 -4 4 -7 14 -7 22 0 8 -6 28 -14 45 -7 18
-23 59 -34 92 -22 65 -41 119 -53 150 -33 87 -44 113 -49 110 -3 -2 -6 13 -7
32 -2 40 -8 48 -40 58 -20 6 -23 3 -20 -22z m44 -28 c0 -8 -4 -15 -9 -15 -4 0
-8 7 -8 15 0 8 4 15 8 15 5 0 9 -7 9 -15z"/>
<path d="M1 4104 c0 -11 3 -14 6 -6 3 7 2 16 -1 19 -3 4 -6 -2 -5 -13z"/>
<path d="M2 4000 c0 -14 2 -19 5 -12 2 6 2 18 0 25 -3 6 -5 1 -5 -13z"/>
<path d="M3 3910 c0 -25 2 -35 4 -22 2 12 2 32 0 45 -2 12 -4 2 -4 -23z"/>
<path d="M1902 3548 c2 -6 10 -14 16 -16 7 -2 10 2 6 12 -7 18 -28 22 -22 4z"/>
<path d="M7010 3070 c0 -5 -6 -10 -14 -10 -8 0 -16 -6 -19 -13 -3 -7 -29 -13
-67 -15 -107 -6 -182 -48 -196 -110 -12 -54 -13 -56 -32 -41 -15 13 -16 12 -3
-4 12 -15 12 -20 -1 -35 -9 -9 -20 -30 -25 -47 -10 -32 -43 -48 -43 -21 0 9
-7 16 -15 16 -8 0 -15 5 -15 11 0 6 -7 4 -15 -5 -18 -18 -19 -32 -2 -40 6 -3
3 -4 -7 -3 -27 3 -54 -50 -51 -101 1 -23 -1 -45 -5 -47 -8 -5 -23 32 -21 53 1
6 -3 12 -9 12 -5 0 -10 -18 -10 -39 0 -25 -5 -41 -15 -45 -11 -4 -13 -14 -8
-38 3 -18 9 -37 13 -43 4 -5 10 -23 14 -38 4 -16 16 -38 26 -50 11 -11 20 -26
20 -31 0 -15 -78 -47 -85 -35 -4 5 1 9 9 9 8 0 18 5 22 11 9 14 -64 3 -83 -13
-14 -11 -18 -88 -5 -88 4 0 13 -12 19 -27 11 -23 10 -30 -7 -48 -11 -12 -20
-27 -20 -34 0 -17 61 -75 113 -107 23 -15 46 -33 50 -40 23 -39 166 -80 193
-55 5 5 19 12 31 16 19 5 22 3 16 -10 -8 -21 16 -38 31 -21 6 6 20 28 30 49
11 20 23 37 27 37 5 0 15 12 23 28 8 15 31 45 52 67 36 38 40 40 99 40 34 0
69 5 76 12 8 6 33 17 57 24 24 7 49 21 56 31 7 10 21 19 32 21 10 1 25 6 32
10 7 5 41 7 77 6 36 -1 68 1 72 4 3 4 14 7 24 7 9 0 19 7 23 15 3 9 15 19 27
23 20 8 20 10 5 24 -14 15 -12 18 29 43 32 18 45 32 45 48 0 18 -2 19 -11 7
-7 -11 -12 -12 -15 -3 -6 13 -34 6 -34 -9 0 -5 4 -7 9 -3 5 3 12 1 16 -5 4 -6
-5 -10 -19 -10 -14 0 -26 5 -26 10 0 6 -7 10 -15 10 -8 0 -15 7 -15 15 0 11
-11 15 -40 15 -50 0 -108 27 -116 54 -4 12 -16 30 -27 40 -17 17 -19 28 -14
81 4 43 2 68 -7 81 -25 36 -27 70 -6 94 11 13 20 29 20 37 0 7 4 13 8 13 5 0
22 12 40 26 25 21 30 32 25 52 -4 19 -3 23 7 17 9 -5 11 -4 6 3 -5 9 -14 7
-32 -4 -23 -16 -25 -15 -49 9 -14 13 -39 27 -56 31 -16 3 -41 19 -55 36 -23
27 -31 30 -85 30 -33 0 -59 4 -59 10 0 6 -4 10 -10 10 -5 0 -10 -4 -10 -10z
m107 -84 c-6 -18 -24 -17 -31 1 -3 10 -9 24 -12 32 -4 9 2 7 19 -5 15 -10 25
-23 24 -28z m41 -39 c4 -30 -12 -37 -22 -9 -3 9 -9 23 -12 30 -4 10 0 13 12
10 12 -2 20 -13 22 -31z m-629 -798 c13 -11 21 -22 17 -26 -9 -10 -84 18 -90
33 -8 22 45 17 73 -7z"/>
<path d="M7680 3057 c0 -7 18 -31 41 -52 l40 -40 -6 30 c-10 45 -75 99 -75 62z"/>
<path d="M9790 2985 c0 -8 2 -15 4 -15 2 0 6 7 10 15 3 8 1 15 -4 15 -6 0 -10
-7 -10 -15z"/>
<path d="M7915 2941 c4 -7 2 -16 -5 -21 -8 -5 -9 -16 -4 -31 7 -23 8 -23 16
10 7 24 6 37 -3 45 -9 8 -10 8 -4 -3z"/>
<path d="M7780 2905 c0 -22 18 -27 29 -7 8 14 6 18 -10 19 -10 1 -19 -4 -19
-12z"/>
<path d="M7921 2828 c0 -21 -5 -38 -11 -38 -5 0 -10 5 -10 10 0 6 -7 10 -15
10 -8 0 -15 -4 -15 -10 0 -5 -7 -10 -15 -10 -8 0 -15 5 -15 11 0 14 -42 7 -47
-7 -2 -7 7 -14 20 -18 18 -4 26 -15 31 -40 8 -41 0 -64 -33 -92 -23 -20 -25
-28 -23 -94 2 -63 0 -71 -13 -60 -10 8 -15 31 -15 71 0 45 -3 59 -14 59 -8 0
-18 -4 -21 -10 -3 -5 -23 -10 -45 -10 -33 0 -37 -3 -33 -19 3 -10 0 -28 -6
-39 -7 -14 -8 -23 -1 -27 5 -3 10 -1 10 4 0 19 17 12 23 -9 4 -14 14 -20 35
-20 17 0 32 -6 36 -15 3 -8 18 -15 33 -15 43 0 83 -57 53 -75 -5 -3 -10 -24
-10 -45 0 -38 -2 -41 -52 -64 -29 -14 -72 -28 -95 -32 -24 -4 -43 -10 -43 -15
0 -5 -6 -9 -14 -9 -8 0 -16 -6 -18 -12 -3 -8 -10 -3 -18 12 -26 49 -54 57
-117 36 -16 -5 -23 -3 -23 6 0 7 -6 2 -14 -12 -7 -14 -9 -29 -4 -34 4 -6 8
-25 8 -43 0 -18 5 -33 11 -33 8 0 8 -5 -1 -15 -7 -8 -21 -15 -31 -15 -22 0
-24 -18 -5 -42 9 -12 27 -18 53 -18 21 0 43 -4 49 -9 5 -5 35 -16 67 -26 31
-10 57 -22 57 -26 0 -21 22 -6 37 25 9 19 26 37 38 40 17 4 24 16 29 46 7 43
47 93 85 105 11 3 29 21 40 39 11 18 32 45 46 60 26 28 27 63 2 53 -10 -4 -13
15 -13 83 1 102 12 123 62 118 18 -1 36 1 40 5 4 4 13 2 20 -4 15 -12 34 -4
34 14 0 7 -18 30 -40 52 -21 22 -39 48 -40 58 0 9 -6 17 -13 17 -9 0 -14 15
-16 43 -1 23 -6 60 -11 82 l-8 40 -1 -37z m22 -222 c3 -8 -1 -20 -9 -26 -12
-10 -14 -8 -14 14 0 28 14 35 23 12z m-96 -278 c-3 -8 -6 -5 -6 6 -1 11 2 17
5 13 3 -3 4 -12 1 -19z m-391 -165 c-10 -10 -19 5 -10 18 6 11 8 11 12 0 2 -7
1 -15 -2 -18z m268 -1 c-6 -4 -13 -15 -17 -24 -6 -18 -51 -25 -61 -10 -6 11 5
28 24 35 22 8 67 8 54 -1z m-49 -81 c-3 -12 -11 -21 -16 -21 -14 0 -11 38 4
43 17 6 20 2 12 -22z m-55 -6 c0 -8 -6 -15 -14 -15 -7 0 -29 -3 -47 -6 -32 -6
-33 -5 -14 9 17 13 41 22 68 26 4 0 7 -6 7 -14z"/>
<path d="M7510 2821 c0 -6 4 -13 10 -16 6 -3 7 1 4 9 -7 18 -14 21 -14 7z"/>
<path d="M7640 2490 c0 -5 5 -10 11 -10 5 0 7 5 4 10 -3 6 -8 10 -11 10 -2 0
-4 -4 -4 -10z"/>
<path d="M7591 2312 c-12 -22 3 -42 32 -42 10 0 27 -4 37 -10 13 -7 21 -6 29
4 9 11 2 19 -33 40 -53 31 -53 31 -65 8z"/>
<path d="M8490 2176 c0 -8 -6 -17 -12 -19 -8 -4 -9 -6 -2 -6 18 -1 37 26 24
34 -5 3 -10 0 -10 -9z"/>
<path d="M5580 2155 c0 -8 -7 -15 -15 -15 -8 0 -15 5 -15 10 0 19 -55 10 -85
-15 -54 -44 -64 -57 -84 -100 -23 -51 -31 -96 -17 -101 17 -6 15 -86 -2 -92
-7 -2 -24 8 -39 22 -14 14 -36 26 -47 26 -29 0 -64 -34 -83 -79 -8 -19 -22
-41 -32 -47 -9 -7 -21 -36 -26 -66 -7 -36 -15 -53 -25 -53 -44 0 -103 -84 -98
-138 2 -26 0 -31 -15 -29 -26 4 -97 73 -97 94 0 9 -5 18 -10 20 -6 2 -13 27
-17 56 -3 28 -9 52 -12 52 -9 0 -7 43 3 58 4 7 3 27 -3 45 -6 17 -13 43 -16
57 -7 31 -32 66 -42 56 -4 -4 -2 -16 5 -26 16 -26 16 -97 0 -103 -10 -3 -10
-9 0 -26 6 -11 12 -23 12 -26 0 -7 -74 28 -82 40 -5 6 -8 3 -8 -7 0 -22 26
-48 67 -65 20 -8 38 -25 45 -41 6 -15 17 -42 25 -60 20 -47 12 -60 -20 -29
-14 15 -29 27 -32 27 -9 0 -42 36 -61 69 -10 17 -21 31 -25 31 -4 0 -16 15
-28 33 -11 17 -21 26 -21 18 0 -19 39 -81 51 -81 6 0 9 -8 7 -19 -3 -16 48
-71 67 -71 3 0 12 -6 19 -12 7 -7 25 -22 40 -33 61 -45 68 -52 50 -59 -49 -19
-147 8 -185 51 -35 40 -87 73 -116 73 -12 0 -25 5 -28 10 -8 13 -55 13 -55 1
0 -5 6 -12 13 -14 7 -3 4 -6 -6 -6 -10 -1 -17 -7 -14 -13 2 -8 17 -12 38 -10
25 2 40 -3 52 -16 21 -22 28 -77 10 -77 -6 0 -15 -3 -19 -7 -9 -9 28 -11 50
-2 21 8 20 24 -1 24 -14 0 -15 2 -4 9 11 7 11 10 0 15 -8 3 -5 5 6 3 12 -1 21
-11 23 -25 2 -12 8 -22 13 -22 5 0 9 -4 9 -10 0 -5 -7 -7 -14 -4 -13 5 -13 2
-3 -20 14 -30 22 -32 35 -11 7 13 29 15 135 13 l127 -3 -25 -30 c-21 -25 -26
-28 -34 -15 -14 20 -174 28 -196 10 -22 -19 0 -40 41 -40 18 0 35 -4 38 -9 3
-4 28 -11 56 -15 52 -7 90 -33 90 -61 0 -8 -9 -15 -20 -15 -11 0 -20 5 -20 10
0 33 -114 -15 -141 -60 -19 -31 -19 -67 0 -56 15 10 21 -23 6 -38 -38 -37 -27
-85 18 -86 10 0 25 -7 33 -15 19 -18 109 -20 165 -3 38 11 39 10 74 -28 41
-44 40 -60 -1 -57 -17 1 -21 0 -10 -4 11 -3 26 -12 34 -19 8 -9 22 -12 34 -8
14 4 21 0 25 -15 3 -12 9 -21 14 -21 5 0 6 -7 3 -15 -4 -9 4 -19 23 -27 15 -7
36 -22 45 -33 14 -17 20 -18 37 -7 29 17 96 15 111 -3 10 -12 10 -15 -1 -15
-25 0 -62 -66 -55 -97 9 -39 70 -68 123 -59 21 4 47 8 58 10 29 4 69 18 75 25
10 12 72 30 87 24 9 -4 11 -8 4 -12 -6 -4 -13 -20 -17 -37 -7 -36 15 -63 71
-88 22 -9 50 -22 63 -29 12 -6 45 -10 72 -10 43 1 54 5 86 37 20 20 51 43 68
50 40 17 96 69 96 90 0 9 7 19 15 22 8 3 17 21 21 40 3 19 10 34 14 34 12 0
33 61 30 85 -1 11 -3 26 -4 34 0 8 12 18 27 22 36 10 47 -13 22 -41 -10 -11
-15 -23 -12 -26 4 -4 10 2 14 12 6 17 8 17 14 -6 l7 -25 1 28 c1 19 6 27 19
26 10 0 12 -3 5 -6 -7 -2 -13 -14 -13 -25 0 -13 5 -18 14 -15 8 3 17 1 20 -6
2 -7 5 3 5 21 1 27 -5 36 -29 50 -23 13 -30 24 -30 49 0 17 -4 35 -10 38 -18
11 -11 58 16 111 37 74 68 106 104 109 17 1 33 5 37 8 7 8 -37 46 -54 47 -7 0
-13 3 -13 8 0 4 -27 20 -61 36 -70 33 -89 64 -97 153 -3 44 0 57 22 86 29 38
33 72 12 96 -19 21 -27 96 -15 129 20 52 74 82 192 107 15 3 27 9 27 13 0 13
-56 72 -63 66 -12 -13 -48 20 -90 83 -63 95 -90 113 -171 113 -36 0 -68 5 -71
10 -14 23 -77 9 -125 -26 -8 -6 -32 -14 -53 -17 -32 -5 -51 0 -105 28 -73 38
-152 49 -152 20z m-400 -525 c0 -5 -4 -10 -10 -10 -5 0 -10 5 -10 10 0 6 5 10
10 10 6 0 10 -4 10 -10z m-10 -53 c27 -21 37 -79 34 -186 -3 -99 -2 -105 23
-140 15 -20 32 -41 37 -46 15 -15 36 -47 42 -67 4 -10 10 -18 15 -18 5 0 9 -9
9 -20 0 -22 -12 -25 -40 -10 -14 8 -22 6 -32 -8 -14 -19 -48 -36 -48 -24 0 4
-3 17 -6 30 -6 20 -3 22 29 22 29 0 36 4 41 26 8 30 -1 45 -13 25 -6 -9 -11
-10 -15 -2 -4 6 -2 11 5 11 7 0 -2 15 -20 34 -19 19 -40 32 -47 29 -18 -7 -43
14 -55 44 -5 13 -16 23 -25 23 -26 0 -42 29 -34 64 5 26 11 31 34 31 31 1 46
18 46 57 0 20 4 26 15 22 9 -4 15 0 15 10 0 9 -7 16 -16 16 -13 0 -15 7 -11
30 7 32 -10 51 -24 29 -7 -11 -9 -11 -9 3 0 14 12 25 30 27 3 0 12 -5 20 -12z
m695 -17 c3 -5 1 -10 -4 -10 -6 0 -11 5 -11 10 0 6 2 10 4 10 3 0 8 -4 11 -10z
m-730 -60 c3 -5 1 -10 -4 -10 -6 0 -11 5 -11 10 0 6 2 10 4 10 3 0 8 -4 11
-10z m780 -41 c12 -18 -3 -22 -20 -5 -14 14 -14 16 -1 16 8 0 18 -5 21 -11z
m-130 -76 c23 -14 19 -20 -15 -23 -47 -4 -60 0 -60 18 0 21 43 24 75 5z m-272
-145 c6 -4 8 -10 5 -13 -13 -13 -28 6 -27 33 1 21 2 23 6 7 3 -11 10 -23 16
-27z m107 11 c0 -5 -4 -9 -10 -9 -5 0 -10 7 -10 16 0 8 5 12 10 9 6 -3 10 -10
10 -16z m610 -39 c0 -5 -7 -10 -15 -10 -8 0 -15 5 -15 10 0 6 7 10 15 10 8 0
15 -4 15 -10z m-1220 -38 c0 -12 -59 -32 -76 -25 -24 9 -15 22 19 26 17 2 38
5 45 5 6 1 12 -2 12 -6z m-17 -59 c-7 -2 -19 -2 -25 0 -7 3 -2 5 12 5 14 0 19
-2 13 -5z m170 -21 c23 -20 22 -29 -7 -34 -18 -4 -27 1 -35 19 -20 44 0 51 42
15z m-165 -24 c-3 -25 -31 -36 -99 -37 -45 -1 -45 -1 -41 29 l4 30 70 0 c66 0
69 -1 66 -22z m199 -64 c-3 -3 -12 -4 -19 -1 -8 3 -5 6 6 6 11 1 17 -2 13 -5z
m1033 -91 c0 -2 -4 -3 -8 -3 -10 0 -31 77 -24 85 5 4 31 -65 32 -82z m-147
-239 c3 -3 3 -13 0 -21 -5 -12 -7 -12 -14 -1 -15 23 -4 40 14 22z m-46 -20
c-3 -3 -12 -4 -19 -1 -8 3 -5 6 6 6 11 1 17 -2 13 -5z"/>
<path d="M8700 2078 c0 -45 -12 -54 -35 -28 -19 21 -41 28 -30 10 3 -5 -3 -10
-14 -10 -15 0 -21 -6 -21 -21 0 -18 2 -19 15 -9 16 13 20 3 9 -24 -7 -17 -34
-22 -34 -6 0 6 -7 10 -15 10 -8 0 -15 -4 -15 -10 0 -5 -12 -13 -26 -16 -21 -5
-25 -11 -23 -38 2 -22 -10 -58 -39 -114 -41 -80 -41 -83 -31 -134 6 -29 12
-62 14 -73 2 -11 11 -29 20 -40 15 -19 16 -18 10 17 -6 37 10 62 25 38 6 -9 9
-9 12 1 3 8 -2 21 -11 29 -50 46 -63 108 -21 97 22 -6 26 3 8 21 -9 9 -8 16 5
30 9 10 14 22 10 26 -4 4 -1 11 6 16 9 5 30 -1 57 -16 42 -23 98 -36 64 -14
-12 8 -13 13 -2 30 11 17 10 20 -7 20 -10 0 -24 7 -31 15 -10 12 -9 16 4 21 9
3 13 10 10 15 -3 5 2 9 11 9 9 0 14 -4 11 -9 -4 -5 5 -4 18 2 13 7 22 16 19
21 -4 5 4 6 18 2 63 -20 138 -7 128 22 -3 8 -12 8 -33 -3 -15 -8 -32 -13 -37
-10 -12 8 1 36 15 28 6 -3 6 -1 -1 8 -7 7 -13 24 -13 39 0 14 -11 39 -25 55
l-24 30 -1 -37z"/>
<path d="M8750 2088 c0 -19 2 -20 10 -8 13 19 13 30 0 30 -5 0 -10 -10 -10
-22z"/>
<path d="M4576 2018 c-4 -34 -10 -58 -14 -52 -4 5 -15 15 -24 23 -16 12 -18
11 -18 -3 0 -9 5 -16 11 -16 16 0 41 -29 34 -39 -3 -5 6 -22 20 -37 14 -15 25
-33 25 -40 0 -8 5 -14 10 -14 6 0 10 -7 10 -16 0 -8 4 -13 9 -10 4 3 6 16 4
29 -3 13 0 41 6 62 11 42 -8 123 -37 158 -24 27 -29 21 -36 -45z"/>
<path d="M2824 2049 c-9 -15 1 -21 26 -17 21 3 21 3 1 15 -14 9 -22 9 -27 2z"/>
<path d="M3040 2036 c0 -9 5 -16 10 -16 6 0 10 4 10 9 0 6 -4 13 -10 16 -5 3
-10 -1 -10 -9z"/>
<path d="M8510 2036 c0 -16 18 -31 27 -22 3 3 -2 12 -11 21 -14 14 -16 14 -16
1z"/>
<path d="M2872 2015 c-11 -12 -10 -15 3 -15 8 0 15 7 15 15 0 18 -2 18 -18 0z"/>
<path d="M4037 1947 c3 -23 7 -43 8 -45 1 -1 14 3 29 9 25 12 35 29 16 29 -5
0 -20 11 -34 24 l-24 25 5 -42z"/>
<path d="M3007 1909 c6 -22 111 -105 120 -95 9 9 -18 55 -36 61 -9 3 -29 16
-45 30 -35 30 -46 32 -39 4z"/>
<path d="M8800 1876 c0 -24 17 -28 23 -6 3 13 0 20 -9 20 -8 0 -14 -6 -14 -14z"/>
<path d="M8085 1870 c-3 -6 1 -7 9 -4 18 7 21 14 7 14 -6 0 -13 -4 -16 -10z"/>
<path d="M8130 1876 c0 -2 11 -6 25 -8 13 -3 22 -1 19 3 -5 9 -44 13 -44 5z"/>
<path d="M4553 1858 c0 -7 -1 -25 -1 -40 l-2 -26 -46 24 c-53 28 -55 29 -48 9
4 -8 11 -15 16 -15 6 0 23 -12 38 -27 38 -39 78 -67 107 -75 23 -6 24 -5 10
10 -25 30 -47 84 -47 119 0 21 -5 33 -14 33 -8 0 -14 -6 -13 -12z"/>
<path d="M7630 1793 c-53 -57 -67 -99 -38 -114 24 -13 48 -5 48 16 0 9 9 15
24 15 19 0 25 7 30 36 4 19 14 38 22 41 21 8 17 21 -8 29 -13 4 -26 11 -29 15
-3 5 -25 -12 -49 -38z"/>
<path d="M8051 1824 c0 -11 3 -14 6 -6 3 7 2 16 -1 19 -3 4 -6 -2 -5 -13z"/>
<path d="M9160 1825 c0 -8 4 -15 10 -15 5 0 7 7 4 15 -4 8 -8 15 -10 15 -2 0
-4 -7 -4 -15z"/>
<path d="M8716 1804 c-3 -7 2 -10 15 -7 22 6 26 20 4 20 -8 0 -16 -6 -19 -13z"/>
<path d="M3140 1801 c0 -6 5 -13 10 -16 6 -3 10 1 10 9 0 9 -4 16 -10 16 -5 0
-10 -4 -10 -9z"/>
<path d="M7530 1719 c0 -5 5 -7 10 -4 6 3 10 8 10 11 0 2 -4 4 -10 4 -5 0 -10
-5 -10 -11z"/>
<path d="M7645 1660 c3 -5 8 -10 11 -10 2 0 4 5 4 10 0 6 -5 10 -11 10 -5 0
-7 -4 -4 -10z"/>
<path d="M3338 1653 c7 -3 16 -2 19 1 4 3 -2 6 -13 5 -11 0 -14 -3 -6 -6z"/>
<path d="M8603 1576 c19 -19 33 -25 45 -21 14 6 11 9 -13 18 -16 5 -37 14 -45
20 -8 6 -2 -2 13 -17z"/>
<path d="M8368 1569 c-10 -5 -18 -17 -18 -25 0 -16 -28 -65 -45 -76 -5 -4 -22
-8 -37 -8 -33 0 -58 -24 -58 -56 0 -19 5 -24 25 -24 14 0 25 5 25 10 0 6 8 10
18 9 10 0 12 -3 5 -6 -19 -7 -16 -68 5 -85 9 -9 27 -14 40 -12 22 4 69 -19 84
-41 5 -6 8 -6 8 2 0 7 15 11 39 10 30 -1 45 5 70 28 30 29 41 55 22 55 -5 0
-22 20 -38 45 -20 32 -35 45 -50 45 -16 0 -23 6 -23 20 0 22 -40 120 -49 120
-3 0 -14 -5 -23 -11z"/>
<path d="M3975 1528 c-31 -18 -45 -35 -45 -55 1 -17 1 -17 14 0 7 9 20 17 28
17 8 0 19 5 26 12 7 7 12 8 12 2 0 -5 -5 -15 -11 -21 -9 -9 -6 -10 12 -6 13 4
27 11 31 16 3 6 11 -5 16 -24 10 -33 10 -33 11 19 l1 52 -37 0 c-21 0 -47 -6
-58 -12z"/>
<path d="M4507 1534 c-8 -8 43 -54 60 -54 12 0 12 2 -1 15 -8 8 -19 15 -25 15
-6 0 -11 7 -11 15 0 15 -12 20 -23 9z"/>
<path d="M3437 1510 c10 -11 19 -20 21 -20 1 0 -2 9 -8 20 -6 11 -15 20 -20
20 -6 0 -2 -9 7 -20z"/>
<path d="M8560 1488 c0 -26 2 -29 15 -18 8 7 15 18 15 25 0 7 -7 15 -15 19
-11 4 -15 -2 -15 -26z"/>
<path d="M3586 1475 c4 -8 12 -15 20 -15 20 0 17 7 -6 20 -16 9 -18 8 -14 -5z"/>
<path d="M8062 1448 c-52 -54 -69 -68 -81 -68 -5 0 -11 -4 -13 -8 -6 -15 -78
-53 -88 -47 -5 3 -17 23 -27 43 -23 50 -41 68 -48 49 -3 -7 -1 -26 5 -41 14
-37 13 -38 -12 -25 -17 9 -24 9 -33 -5 -7 -9 -20 -16 -29 -16 -20 0 -20 0 0
-50 13 -31 14 -46 5 -71 -14 -41 -14 -49 2 -49 12 0 27 10 101 65 14 11 26 28
26 37 0 10 5 18 11 18 14 0 39 25 39 39 0 6 7 11 15 11 8 0 15 5 15 10 0 6 6
10 14 10 8 0 21 6 28 13 7 7 21 16 31 20 12 5 6 -8 -17 -37 -20 -24 -36 -48
-36 -54 0 -6 -6 -13 -12 -15 -9 -4 -10 -6 -1 -6 6 -1 19 6 27 15 12 12 16 12
16 2 0 -9 13 -13 41 -13 24 0 44 -6 49 -15 16 -25 -8 -38 -68 -38 -33 0 -58
-4 -60 -11 -2 -6 -8 -11 -14 -11 -15 0 -88 -72 -88 -87 0 -7 -4 -13 -10 -13
-5 0 -10 -8 -10 -18 0 -10 -4 -22 -10 -28 -11 -11 -19 -114 -9 -114 4 0 15 7
24 16 22 22 28 12 28 -40 -1 -39 2 -45 23 -50 14 -4 28 -14 31 -24 11 -32 36
-52 65 -52 27 0 75 23 89 43 4 5 10 4 13 -2 4 -6 21 -11 38 -11 29 0 46 13 96
74 6 8 12 39 12 69 0 31 6 61 15 73 20 27 18 78 -4 123 -18 35 -33 45 -93 65
-18 5 -25 25 -10 27 4 1 18 3 32 5 14 2 40 6 58 10 21 4 32 2 32 -5 0 -6 7
-11 15 -11 20 0 19 16 -1 24 -9 3 -14 12 -11 19 3 7 -3 13 -12 14 -9 0 -35 3
-58 5 -24 2 -43 0 -43 -4 0 -5 -4 -6 -10 -3 -12 8 -13 52 -1 59 4 3 11 18 14
33 3 16 9 36 12 46 4 10 3 17 -4 17 -6 0 -11 -7 -11 -15 0 -8 -4 -15 -10 -15
-5 0 -10 -13 -10 -30 0 -16 -4 -30 -9 -30 -5 0 -11 -10 -13 -22 -3 -19 -9 -22
-54 -22 l-51 -1 26 26 c37 38 53 59 80 102 21 35 22 37 3 37 -10 0 -37 -19
-60 -42z m-202 -183 c0 -8 -4 -15 -10 -15 -5 0 -10 7 -10 15 0 8 5 15 10 15 6
0 10 -7 10 -15z"/>
<path d="M4455 1454 c-28 -28 -4 -104 32 -104 12 0 14 7 9 33 -4 17 -8 42 -9
54 -3 31 -12 36 -32 17z"/>
<path d="M4315 1414 c13 -20 14 -29 5 -38 -8 -8 -9 -6 -4 8 6 16 4 18 -19 13
-14 -4 -27 -3 -29 4 -2 5 -11 7 -21 4 -9 -4 -14 -11 -11 -16 3 -6 1 -16 -6
-23 -8 -11 -3 -19 25 -36 34 -21 44 -43 25 -55 -5 -3 -18 -1 -29 5 -30 16 -36
-6 -7 -25 20 -13 46 -60 46 -84 0 -5 -60 57 -101 106 -37 45 -108 83 -141 76
-34 -7 -37 -23 -4 -23 13 0 29 -7 36 -15 11 -13 10 -19 -6 -33 -18 -18 -20
-17 -42 5 -26 27 -42 30 -42 8 0 -8 4 -15 8 -15 4 0 15 -13 24 -28 19 -31 111
-128 148 -154 13 -10 32 -18 42 -18 10 0 18 -4 18 -10 0 -6 32 -10 75 -10 60
0 75 3 75 15 0 9 -9 15 -24 15 -53 0 -72 52 -36 97 11 14 20 32 20 39 0 8 8
23 17 33 28 33 33 101 12 149 -11 25 -20 32 -43 32 -28 0 -28 0 -11 -26z m45
-103 c0 -28 -16 -27 -24 2 -10 40 -8 50 9 33 8 -8 15 -24 15 -35z"/>
<path d="M8632 1429 c2 -7 10 -15 17 -17 8 -3 12 1 9 9 -2 7 -10 15 -17 17 -8
3 -12 -1 -9 -9z"/>
<path d="M4626 1421 c-17 -6 -17 -8 -4 -14 10 -3 19 0 22 9 3 8 4 14 3 13 -1
0 -11 -4 -21 -8z"/>
<path d="M3980 1350 c0 -5 5 -10 11 -10 5 0 7 5 4 10 -3 6 -8 10 -11 10 -2 0
-4 -4 -4 -10z"/>
<path d="M3788 1278 c-7 -4 -23 -8 -36 -8 -23 0 -23 -1 7 -31 17 -17 28 -35
25 -41 -4 -6 -7 -23 -8 -37 -1 -33 -32 -39 -76 -16 -50 26 -60 9 -60 -96 0
-87 9 -111 33 -91 16 13 51 -11 44 -30 -4 -10 -6 -10 -6 0 -1 19 -18 14 -24
-8 -4 -15 1 -22 19 -26 30 -8 30 -16 -1 -30 -16 -8 -25 -8 -27 -2 -2 6 -12 3
-21 -7 -14 -13 -15 -20 -6 -31 8 -9 8 -14 1 -14 -6 0 -13 4 -17 10 -9 14 -35
0 -35 -19 1 -24 27 -55 33 -39 3 7 6 -2 6 -19 1 -18 6 -33 12 -33 5 0 8 4 4 9
-3 5 -1 12 5 16 5 3 10 -2 10 -12 0 -27 66 -19 73 8 7 26 47 26 47 0 0 -14 -9
-21 -31 -26 -17 -4 -28 -9 -25 -12 9 -9 51 6 76 27 13 11 33 20 45 20 13 0 25
6 28 13 2 6 25 18 50 25 38 11 46 18 51 43 5 25 10 30 28 27 15 -2 24 -11 26
-25 2 -13 7 -23 12 -23 5 0 11 10 13 23 l4 22 2 -22 c0 -13 6 -23 12 -23 6 0
8 8 4 19 -5 15 3 20 47 30 61 14 171 29 177 25 2 -2 -2 -10 -9 -19 -21 -25 -4
-17 30 15 33 30 35 60 5 60 -8 0 -15 3 -15 8 0 4 -14 16 -30 27 -16 11 -30 23
-30 27 0 4 20 10 45 13 24 4 52 13 62 21 16 12 10 13 -42 8 -33 -4 -68 -11
-77 -16 -13 -6 -29 -2 -55 15 -21 13 -59 30 -85 37 -34 10 -50 22 -62 44 -48
93 -139 169 -181 152 -9 -3 -14 -2 -11 3 8 12 -50 20 -66 9z m46 -17 c3 -5 -1
-11 -9 -15 -18 -6 -45 2 -45 15 0 12 47 12 54 0z m85 -46 c1 -2 0 -9 -4 -15
-5 -8 -12 -7 -23 3 -10 8 -26 17 -37 21 -11 3 -2 3 20 0 22 -3 42 -7 44 -9z
m-25 -252 c1 -49 -29 -61 -88 -37 -25 11 -46 23 -46 27 0 5 5 5 10 2 6 -3 25
5 43 19 18 16 42 25 56 24 20 -3 24 -9 25 -35z m-210 -138 c-4 -8 -8 -15 -10
-15 -2 0 -4 7 -4 15 0 8 4 15 10 15 5 0 7 -7 4 -15z m-14 -45 c0 -5 -2 -10 -4
-10 -3 0 -8 5 -11 10 -3 6 -1 10 4 10 6 0 11 -4 11 -10z"/>
<path d="M185 1250 c-106 -15 -185 -33 -185 -41 0 -12 47 -11 55 1 3 6 21 10
39 10 17 0 37 5 43 11 7 7 31 9 65 5 29 -4 74 -6 100 -6 29 0 52 -5 62 -15 9
-10 16 -12 16 -5 0 39 -80 56 -195 40z"/>
<path d="M2950 1249 c0 -5 5 -7 10 -4 6 3 10 8 10 11 0 2 -4 4 -10 4 -5 0 -10
-5 -10 -11z"/>
<path d="M8398 1179 c-21 -65 -21 -69 -8 -69 12 0 32 74 28 103 -2 15 -9 4
-20 -34z"/>
<path d="M3554 1171 c19 -7 19 -8 0 -15 -18 -8 -18 -8 4 -17 27 -10 30 -49 5
-71 -10 -8 -35 -22 -55 -31 -20 -10 -46 -33 -58 -52 -12 -19 -28 -35 -36 -35
-13 0 -204 -181 -204 -193 0 -16 39 12 100 72 96 94 128 121 144 121 8 0 16 6
19 13 7 17 68 47 97 47 16 0 20 -4 16 -16 -3 -9 -1 -14 5 -12 27 9 48 120 33
176 -5 18 -13 22 -48 21 -29 0 -35 -3 -22 -8z"/>
<path d="M108 1143 c7 -3 16 -2 19 1 4 3 -2 6 -13 5 -11 0 -14 -3 -6 -6z"/>
<path d="M0 1125 c0 -8 5 -15 12 -15 9 0 9 -3 0 -12 -7 -7 -12 -20 -12 -31 0
-16 3 -16 33 6 17 14 42 28 55 32 37 11 14 27 -29 20 -25 -4 -39 -3 -39 4 0 6
-4 11 -10 11 -5 0 -10 -7 -10 -15z"/>
<path d="M8308 1083 c7 -3 16 -2 19 1 4 3 -2 6 -13 5 -11 0 -14 -3 -6 -6z"/>
<path d="M3318 1053 c7 -3 16 -2 19 1 4 3 -2 6 -13 5 -11 0 -14 -3 -6 -6z"/>
<path d="M92 1038 c-6 -6 -30 -11 -52 -10 l-40 3 0 -108 0 -107 46 44 c70 67
124 122 124 126 0 2 -6 1 -14 -2 -13 -5 -28 17 -30 45 -1 19 -19 24 -34 9z
m28 -58 c8 -5 11 -12 8 -16 -4 -3 -14 1 -23 10 -18 17 -9 21 15 6z"/>
<path d="M3350 1040 c-9 -6 -10 -10 -3 -10 6 0 15 5 18 10 8 12 4 12 -15 0z"/>
<path d="M150 1029 c0 -5 5 -7 10 -4 6 3 10 8 10 11 0 2 -4 4 -10 4 -5 0 -10
-5 -10 -11z"/>
<path d="M8977 1019 c7 -7 15 -10 18 -7 3 3 -2 9 -12 12 -14 6 -15 5 -6 -5z"/>
<path d="M8498 1003 c6 -2 18 -2 25 0 6 3 1 5 -13 5 -14 0 -19 -2 -12 -5z"/>
<path d="M4617 987 c-18 -46 2 -98 30 -75 11 9 11 13 -1 27 -8 9 -16 27 -18
41 -3 22 -4 22 -11 7z"/>
<path d="M7600 955 c0 -14 5 -25 10 -25 6 0 10 -9 10 -20 0 -11 7 -20 15 -20
25 0 18 52 -10 73 -25 18 -25 18 -25 -8z"/>
<path d="M7712 948 c-7 -7 -12 -18 -12 -26 0 -7 -4 -10 -10 -7 -5 3 -10 1 -10
-5 0 -26 -33 -44 -76 -41 -41 2 -49 -1 -102 -50 -31 -29 -56 -59 -54 -67 2 -7
-4 -22 -14 -33 -15 -17 -28 -59 -41 -137 -12 -72 46 -125 76 -69 13 25 59 52
103 63 30 7 67 57 89 119 8 22 16 42 20 45 13 12 18 42 9 64 -6 18 -5 28 6 36
7 7 14 19 14 27 0 8 6 13 13 10 6 -3 19 -8 28 -12 9 -3 23 1 32 9 9 9 21 16
27 16 6 0 9 4 6 9 -3 5 -26 6 -51 4 -36 -5 -46 -2 -51 12 -4 10 -1 21 7 25 7
5 11 11 8 14 -3 3 -11 0 -17 -6z m-169 -335 c3 -5 -1 -14 -9 -21 -8 -7 -14 -9
-14 -5 0 4 -4 2 -9 -5 -5 -8 -16 -12 -25 -10 -15 3 -15 5 -1 26 16 21 49 30
58 15z"/>
<path d="M5025 889 c-10 -15 3 -25 16 -12 7 7 7 13 1 17 -6 3 -14 1 -17 -5z"/>
<path d="M7870 830 c-9 -17 -8 -20 10 -20 11 0 20 6 20 14 0 24 -18 28 -30 6z"/>
<path d="M7442 828 c6 -18 28 -21 28 -4 0 9 -7 16 -16 16 -9 0 -14 -5 -12 -12z"/>
<path d="M7721 824 c0 -11 3 -14 6 -6 3 7 2 16 -1 19 -3 4 -6 -2 -5 -13z"/>
<path d="M3568 798 c-10 -12 -17 -34 -17 -48 1 -20 2 -21 6 -5 3 11 12 28 20
37 8 9 13 21 12 27 -2 6 -12 1 -21 -11z"/>
<path d="M4597 750 c-18 -21 -4 -28 23 -10 10 6 12 12 5 19 -8 8 -16 5 -28 -9z"/>
<path d="M3167 714 c-23 -48 -21 -53 8 -22 26 28 31 43 17 52 -5 3 -16 -11
-25 -30z"/>
<path d="M3445 740 c-3 -5 -1 -10 4 -10 6 0 11 5 11 10 0 6 -2 10 -4 10 -3 0
-8 -4 -11 -10z"/>
<path d="M3531 734 c0 -11 3 -14 6 -6 3 7 2 16 -1 19 -3 4 -6 -2 -5 -13z"/>
<path d="M3066 567 c-31 -40 -31 -45 -5 -76 24 -29 37 -21 16 9 -14 20 -14 25
4 57 27 47 18 53 -15 10z"/>
<path d="M8137 463 c-12 -11 -8 -23 8 -23 8 0 15 7 15 15 0 16 -12 20 -23 8z"/>
<path d="M8162 325 c0 -16 2 -22 5 -12 2 9 2 23 0 30 -3 6 -5 -1 -5 -18z"/>
<path d="M3338 333 c7 -3 16 -2 19 1 4 3 -2 6 -13 5 -11 0 -14 -3 -6 -6z"/>
<path d="M669 287 c-37 -23 -90 -66 -218 -178 -100 -87 -120 -109 -98 -109 9
0 42 26 74 58 32 31 78 73 102 92 64 50 164 132 179 147 20 20 1 15 -39 -10z"/>
<path d="M9435 274 c-175 -27 -378 -126 -479 -233 l-29 -30 -3380 0 c-1859 -1
-3382 -3 -3385 -6 -3 -3 1748 -5 3891 -5 l3897 0 0 88 0 88 -75 32 c-41 18
-103 39 -137 47 -64 16 -249 27 -303 19z"/>
<path d="M7572 220 c0 -19 2 -27 5 -17 2 9 2 25 0 35 -3 9 -5 1 -5 -18z"/>
<path d="M523 3 c71 -2 183 -2 250 0 67 1 10 3 -128 3 -137 0 -192 -2 -122 -3z"/>
<path d="M908 3 c7 -3 16 -2 19 1 4 3 -2 6 -13 5 -11 0 -14 -3 -6 -6z"/>
<path d="M1208 3 c7 -3 16 -2 19 1 4 3 -2 6 -13 5 -11 0 -14 -3 -6 -6z"/>
<path d="M1958 3 c23 -2 61 -2 85 0 23 2 4 4 -43 4 -47 0 -66 -2 -42 -4z"/>
</g>
</svg>
